<svg xmlns="http://www.w3.org/2000/svg" width="100%" viewBox="0 0 156 50" fill="none" class="btn_frame"><g opacity="0.1" filter="url(#filter0_b_3217_212)"><path d="M155 47V15.8247C155 15.2965 154.791 14.7897 154.419 14.415L141.675 1.59025C141.299 1.21245 140.789 1 140.256 1H3C1.89543 1 1 1.89543 1 3V34.1753C1 34.7035 1.20899 35.2103 1.58133 35.585L14.3254 48.4097C14.7008 48.7876 15.2115 49 15.7441 49H153C154.105 49 155 48.1046 155 47Z" stroke="#EBFB1D"></path></g><path d="M6 1H3C1.89543 1 1 1.89543 1 3V6" stroke="#EBFB1D"></path><path d="M150 49L153 49C154.105 49 155 48.1046 155 47L155 44" stroke="#EBFB1D"></path><path d="M136 1H140.262C140.792 1 141.301 1.21071 141.676 1.58579L144.59 4.5" stroke="#EBFB1D"></path><path d="M20 49H15.7384C15.208 49 14.6993 48.7893 14.3242 48.4142L11.41 45.5" stroke="#EBFB1D"></path><defs><filter id="filter0_b_3217_212" x="-19.5" y="-19.5" width="195" height="89" filterUnits="userSpaceOnUse" color-interpolation-filters="sRGB"><feFlood flood-opacity="0" result="BackgroundImageFix"></feFlood><feGaussianBlur in="BackgroundImageFix" stdDeviation="10"></feGaussianBlur><feComposite in2="SourceAlpha" operator="in" result="effect1_backgroundBlur_3217_212"></feComposite><feBlend mode="normal" in="SourceGraphic" in2="effect1_backgroundBlur_3217_212" result="shape"></feBlend></filter></defs></svg>