<svg xmlns="http://www.w3.org/2000/svg" width="100%" viewBox="0 0 100 24" fill="none" class="svg--cf1"><path d="M1.15397 0.00430118L-8.31565e-09 0.00430123L0 24L1.15397 24L1.15397 0.00430118Z" fill="url(#paint0_linear_2754_8748)"></path><path d="M3.25441 0.00430108L2.10033 0.00430113L2.10033 24L3.25441 24L3.25441 0.00430108Z" fill="url(#paint1_linear_2754_8748)"></path><path d="M48.7845 0.00430138L47.6304 0.00430143L47.6304 24L48.7845 24L48.7845 0.00430138Z" fill="url(#paint2_linear_2754_8748)"></path><path d="M50.8847 0.00430129L49.7307 0.00430134L49.7307 24L50.8847 24L50.8847 0.00430129Z" fill="url(#paint3_linear_2754_8748)"></path><path d="M97.8996 0.00430152L96.7456 0.00430158L96.7456 24L97.8996 24L97.8996 0.00430152Z" fill="url(#paint4_linear_2754_8748)"></path><path d="M100 0.00430143L98.8459 0.00430148L98.8459 24L100 24L100 0.00430143Z" fill="url(#paint5_linear_2754_8748)"></path><path d="M6.73468 2.79635e-07L4.28239 3.86828e-07L4.28239 23.9998L6.73468 23.9998L6.73468 2.79635e-07Z" fill="url(#paint6_linear_2754_8748)"></path><path d="M17.3988 -1.8651e-07L14.9465 -7.93168e-08L14.9465 23.9998L17.3988 23.9998L17.3988 -1.8651e-07Z" fill="url(#paint7_linear_2754_8748)"></path><path d="M63.5598 8.45287e-08L61.1075 1.91722e-07L61.1075 23.9998L63.5598 23.9998L63.5598 8.45287e-08Z" fill="url(#paint8_linear_2754_8748)"></path><path d="M67.8557 -1.0325e-07L65.4034 3.94346e-09L65.4034 23.9998L67.8557 23.9998L67.8557 -1.0325e-07Z" fill="url(#paint9_linear_2754_8748)"></path><path d="M42.3142 1.0132e-06L39.8619 1.1204e-06L39.8619 23.9998L42.3142 23.9998L42.3142 1.0132e-06Z" fill="url(#paint10_linear_2754_8748)"></path><path d="M38.233 1.1916e-06L33.9415 1.37918e-06L33.9415 23.9998L38.233 23.9998L38.233 1.1916e-06Z" fill="url(#paint11_linear_2754_8748)"></path><path d="M56.5589 3.90547e-07L52.2674 5.78135e-07L52.2674 23.9998L56.5589 23.9998L56.5589 3.90547e-07Z" fill="url(#paint12_linear_2754_8748)"></path><path d="M10.2319 1.26765e-07L9.07287 1.77429e-07L9.07287 23.9998L10.2319 23.9998L10.2319 1.26765e-07Z" fill="url(#paint13_linear_2754_8748)"></path><path d="M12.2274 3.95404e-08L11.0683 9.02047e-08L11.0683 23.9998L12.2274 23.9998L12.2274 3.95404e-08Z" fill="url(#paint14_linear_2754_8748)"></path><path d="M20.8951 1.94946e-06L19.7361 -2.88674e-07L19.7361 23.9998L20.8951 23.9998L20.8951 1.94946e-06Z" fill="url(#paint15_linear_2754_8748)"></path><path d="M22.8906 1.86224e-06L21.7315 1.9129e-06L21.7315 23.9998L22.8906 23.9998L22.8906 1.86224e-06Z" fill="url(#paint16_linear_2754_8748)"></path><path d="M70.713 -2.28148e-07L69.5539 -1.77483e-07L69.5539 23.9998L70.713 23.9998L70.713 -2.28148e-07Z" fill="url(#paint17_linear_2754_8748)"></path><path d="M72.7086 1.97342e-06L71.5495 -2.64712e-07L71.5495 23.9998L72.7086 23.9998L72.7086 1.97342e-06Z" fill="url(#paint18_linear_2754_8748)"></path><path d="M27.2077 1.67353e-06L26.0486 1.72419e-06L26.0486 23.9998L27.2077 23.9998L27.2077 1.67353e-06Z" fill="url(#paint19_linear_2754_8748)"></path><path d="M29.8841 1.55654e-06L28.725 1.60721e-06L28.725 23.9998L29.8841 23.9998L29.8841 1.55654e-06Z" fill="url(#paint20_linear_2754_8748)"></path><path d="M32.4703 1.44349e-06L31.3112 1.49416e-06L31.3112 23.9998L32.4703 23.9998L32.4703 1.44349e-06Z" fill="url(#paint21_linear_2754_8748)"></path><path d="M80.0978 1.65043e-06L78.9388 1.70109e-06L78.9388 23.9998L80.0978 23.9998L80.0978 1.65043e-06Z" fill="url(#paint22_linear_2754_8748)"></path><path d="M82.7743 1.53344e-06L81.6152 1.5841e-06L81.6152 23.9998L82.7743 23.9998L82.7743 1.53344e-06Z" fill="url(#paint23_linear_2754_8748)"></path><path d="M85.3605 1.42039e-06L84.2015 1.47105e-06L84.2015 23.9998L85.3605 23.9998L85.3605 1.42039e-06Z" fill="url(#paint24_linear_2754_8748)"></path><path d="M46.161 8.45056e-07L45.0019 8.9572e-07L45.0019 23.9998L46.161 23.9998L46.161 8.45056e-07Z" fill="url(#paint25_linear_2754_8748)"></path><path d="M76.5552 1.80528e-06L75.3962 1.85594e-06L75.3962 23.9998L76.5552 23.9998L76.5552 1.80528e-06Z" fill="url(#paint26_linear_2754_8748)"></path><path d="M89.2445 1.25061e-06L88.0854 1.30128e-06L88.0854 23.9998L89.2445 23.9998L89.2445 1.25061e-06Z" fill="url(#paint27_linear_2754_8748)"></path><path d="M59.4027 2.66243e-07L58.2436 3.16907e-07L58.2436 23.9998L59.4027 23.9998L59.4027 2.66243e-07Z" fill="url(#paint28_linear_2754_8748)"></path><path d="M95.1148 9.94013e-07L90.8233 1.1816e-06L90.8233 23.9998L95.1148 23.9998L95.1148 9.94013e-07Z" fill="url(#paint29_linear_2754_8748)"></path><defs><linearGradient id="paint0_linear_2754_8748" x1="100" y1="12" x2="-5.29697e-07" y2="12" gradientUnits="userSpaceOnUse"><stop stop-color="#C5B6AF" stop-opacity="0"></stop><stop offset="0.51" stop-color="#C5B6AF"></stop><stop offset="1" stop-color="#C5B6AF" stop-opacity="0"></stop></linearGradient><linearGradient id="paint1_linear_2754_8748" x1="100" y1="12" x2="-5.29697e-07" y2="12" gradientUnits="userSpaceOnUse"><stop stop-color="#C5B6AF" stop-opacity="0"></stop><stop offset="0.51" stop-color="#C5B6AF"></stop><stop offset="1" stop-color="#C5B6AF" stop-opacity="0"></stop></linearGradient><linearGradient id="paint2_linear_2754_8748" x1="100" y1="12" x2="-5.29697e-07" y2="12" gradientUnits="userSpaceOnUse"><stop stop-color="#C5B6AF" stop-opacity="0"></stop><stop offset="0.51" stop-color="#C5B6AF"></stop><stop offset="1" stop-color="#C5B6AF" stop-opacity="0"></stop></linearGradient><linearGradient id="paint3_linear_2754_8748" x1="100" y1="12" x2="-5.29697e-07" y2="12" gradientUnits="userSpaceOnUse"><stop stop-color="#C5B6AF" stop-opacity="0"></stop><stop offset="0.51" stop-color="#C5B6AF"></stop><stop offset="1" stop-color="#C5B6AF" stop-opacity="0"></stop></linearGradient><linearGradient id="paint4_linear_2754_8748" x1="100" y1="12" x2="-5.29697e-07" y2="12" gradientUnits="userSpaceOnUse"><stop stop-color="#C5B6AF" stop-opacity="0"></stop><stop offset="0.51" stop-color="#C5B6AF"></stop><stop offset="1" stop-color="#C5B6AF" stop-opacity="0"></stop></linearGradient><linearGradient id="paint5_linear_2754_8748" x1="100" y1="12" x2="-5.29697e-07" y2="12" gradientUnits="userSpaceOnUse"><stop stop-color="#C5B6AF" stop-opacity="0"></stop><stop offset="0.51" stop-color="#C5B6AF"></stop><stop offset="1" stop-color="#C5B6AF" stop-opacity="0"></stop></linearGradient><linearGradient id="paint6_linear_2754_8748" x1="100" y1="12" x2="-5.29697e-07" y2="12" gradientUnits="userSpaceOnUse"><stop stop-color="#C5B6AF" stop-opacity="0"></stop><stop offset="0.51" stop-color="#C5B6AF"></stop><stop offset="1" stop-color="#C5B6AF" stop-opacity="0"></stop></linearGradient><linearGradient id="paint7_linear_2754_8748" x1="100" y1="12" x2="-5.29697e-07" y2="12" gradientUnits="userSpaceOnUse"><stop stop-color="#C5B6AF" stop-opacity="0"></stop><stop offset="0.51" stop-color="#C5B6AF"></stop><stop offset="1" stop-color="#C5B6AF" stop-opacity="0"></stop></linearGradient><linearGradient id="paint8_linear_2754_8748" x1="100" y1="12" x2="-5.29697e-07" y2="12" gradientUnits="userSpaceOnUse"><stop stop-color="#C5B6AF" stop-opacity="0"></stop><stop offset="0.51" stop-color="#C5B6AF"></stop><stop offset="1" stop-color="#C5B6AF" stop-opacity="0"></stop></linearGradient><linearGradient id="paint9_linear_2754_8748" x1="100" y1="12" x2="-5.29697e-07" y2="12" gradientUnits="userSpaceOnUse"><stop stop-color="#C5B6AF" stop-opacity="0"></stop><stop offset="0.51" stop-color="#C5B6AF"></stop><stop offset="1" stop-color="#C5B6AF" stop-opacity="0"></stop></linearGradient><linearGradient id="paint10_linear_2754_8748" x1="100" y1="12" x2="-5.29697e-07" y2="12" gradientUnits="userSpaceOnUse"><stop stop-color="#C5B6AF" stop-opacity="0"></stop><stop offset="0.51" stop-color="#C5B6AF"></stop><stop offset="1" stop-color="#C5B6AF" stop-opacity="0"></stop></linearGradient><linearGradient id="paint11_linear_2754_8748" x1="100" y1="12" x2="-5.29697e-07" y2="12" gradientUnits="userSpaceOnUse"><stop stop-color="#C5B6AF" stop-opacity="0"></stop><stop offset="0.51" stop-color="#C5B6AF"></stop><stop offset="1" stop-color="#C5B6AF" stop-opacity="0"></stop></linearGradient><linearGradient id="paint12_linear_2754_8748" x1="100" y1="12" x2="-5.29697e-07" y2="12" gradientUnits="userSpaceOnUse"><stop stop-color="#C5B6AF" stop-opacity="0"></stop><stop offset="0.51" stop-color="#C5B6AF"></stop><stop offset="1" stop-color="#C5B6AF" stop-opacity="0"></stop></linearGradient><linearGradient id="paint13_linear_2754_8748" x1="100" y1="12" x2="-5.29697e-07" y2="12" gradientUnits="userSpaceOnUse"><stop stop-color="#C5B6AF" stop-opacity="0"></stop><stop offset="0.51" stop-color="#C5B6AF"></stop><stop offset="1" stop-color="#C5B6AF" stop-opacity="0"></stop></linearGradient><linearGradient id="paint14_linear_2754_8748" x1="100" y1="12" x2="-5.29697e-07" y2="12" gradientUnits="userSpaceOnUse"><stop stop-color="#C5B6AF" stop-opacity="0"></stop><stop offset="0.51" stop-color="#C5B6AF"></stop><stop offset="1" stop-color="#C5B6AF" stop-opacity="0"></stop></linearGradient><linearGradient id="paint15_linear_2754_8748" x1="100" y1="12" x2="-5.29697e-07" y2="12" gradientUnits="userSpaceOnUse"><stop stop-color="#C5B6AF" stop-opacity="0"></stop><stop offset="0.51" stop-color="#C5B6AF"></stop><stop offset="1" stop-color="#C5B6AF" stop-opacity="0"></stop></linearGradient><linearGradient id="paint16_linear_2754_8748" x1="100" y1="12" x2="-5.29697e-07" y2="12" gradientUnits="userSpaceOnUse"><stop stop-color="#C5B6AF" stop-opacity="0"></stop><stop offset="0.51" stop-color="#C5B6AF"></stop><stop offset="1" stop-color="#C5B6AF" stop-opacity="0"></stop></linearGradient><linearGradient id="paint17_linear_2754_8748" x1="100" y1="12" x2="-5.29697e-07" y2="12" gradientUnits="userSpaceOnUse"><stop stop-color="#C5B6AF" stop-opacity="0"></stop><stop offset="0.51" stop-color="#C5B6AF"></stop><stop offset="1" stop-color="#C5B6AF" stop-opacity="0"></stop></linearGradient><linearGradient id="paint18_linear_2754_8748" x1="100" y1="12" x2="-5.29697e-07" y2="12" gradientUnits="userSpaceOnUse"><stop stop-color="#C5B6AF" stop-opacity="0"></stop><stop offset="0.51" stop-color="#C5B6AF"></stop><stop offset="1" stop-color="#C5B6AF" stop-opacity="0"></stop></linearGradient><linearGradient id="paint19_linear_2754_8748" x1="100" y1="12" x2="-5.29697e-07" y2="12" gradientUnits="userSpaceOnUse"><stop stop-color="#C5B6AF" stop-opacity="0"></stop><stop offset="0.51" stop-color="#C5B6AF"></stop><stop offset="1" stop-color="#C5B6AF" stop-opacity="0"></stop></linearGradient><linearGradient id="paint20_linear_2754_8748" x1="100" y1="12" x2="-5.29697e-07" y2="12" gradientUnits="userSpaceOnUse"><stop stop-color="#C5B6AF" stop-opacity="0"></stop><stop offset="0.51" stop-color="#C5B6AF"></stop><stop offset="1" stop-color="#C5B6AF" stop-opacity="0"></stop></linearGradient><linearGradient id="paint21_linear_2754_8748" x1="100" y1="12" x2="-5.29697e-07" y2="12" gradientUnits="userSpaceOnUse"><stop stop-color="#C5B6AF" stop-opacity="0"></stop><stop offset="0.51" stop-color="#C5B6AF"></stop><stop offset="1" stop-color="#C5B6AF" stop-opacity="0"></stop></linearGradient><linearGradient id="paint22_linear_2754_8748" x1="100" y1="12" x2="-5.29697e-07" y2="12" gradientUnits="userSpaceOnUse"><stop stop-color="#C5B6AF" stop-opacity="0"></stop><stop offset="0.51" stop-color="#C5B6AF"></stop><stop offset="1" stop-color="#C5B6AF" stop-opacity="0"></stop></linearGradient><linearGradient id="paint23_linear_2754_8748" x1="100" y1="12" x2="-5.29697e-07" y2="12" gradientUnits="userSpaceOnUse"><stop stop-color="#C5B6AF" stop-opacity="0"></stop><stop offset="0.51" stop-color="#C5B6AF"></stop><stop offset="1" stop-color="#C5B6AF" stop-opacity="0"></stop></linearGradient><linearGradient id="paint24_linear_2754_8748" x1="100" y1="12" x2="-5.29697e-07" y2="12" gradientUnits="userSpaceOnUse"><stop stop-color="#C5B6AF" stop-opacity="0"></stop><stop offset="0.51" stop-color="#C5B6AF"></stop><stop offset="1" stop-color="#C5B6AF" stop-opacity="0"></stop></linearGradient><linearGradient id="paint25_linear_2754_8748" x1="100" y1="12" x2="-5.29697e-07" y2="12" gradientUnits="userSpaceOnUse"><stop stop-color="#C5B6AF" stop-opacity="0"></stop><stop offset="0.51" stop-color="#C5B6AF"></stop><stop offset="1" stop-color="#C5B6AF" stop-opacity="0"></stop></linearGradient><linearGradient id="paint26_linear_2754_8748" x1="100" y1="12" x2="-5.29697e-07" y2="12" gradientUnits="userSpaceOnUse"><stop stop-color="#C5B6AF" stop-opacity="0"></stop><stop offset="0.51" stop-color="#C5B6AF"></stop><stop offset="1" stop-color="#C5B6AF" stop-opacity="0"></stop></linearGradient><linearGradient id="paint27_linear_2754_8748" x1="100" y1="12" x2="-5.29697e-07" y2="12" gradientUnits="userSpaceOnUse"><stop stop-color="#C5B6AF" stop-opacity="0"></stop><stop offset="0.51" stop-color="#C5B6AF"></stop><stop offset="1" stop-color="#C5B6AF" stop-opacity="0"></stop></linearGradient><linearGradient id="paint28_linear_2754_8748" x1="100" y1="12" x2="-5.29697e-07" y2="12" gradientUnits="userSpaceOnUse"><stop stop-color="#C5B6AF" stop-opacity="0"></stop><stop offset="0.51" stop-color="#C5B6AF"></stop><stop offset="1" stop-color="#C5B6AF" stop-opacity="0"></stop></linearGradient><linearGradient id="paint29_linear_2754_8748" x1="100" y1="12" x2="-5.29697e-07" y2="12" gradientUnits="userSpaceOnUse"><stop stop-color="#C5B6AF" stop-opacity="0"></stop><stop offset="0.51" stop-color="#C5B6AF"></stop><stop offset="1" stop-color="#C5B6AF" stop-opacity="0"></stop></linearGradient></defs></svg>