<svg xmlns="http://www.w3.org/2000/svg" xmlns:xlink="http://www.w3.org/1999/xlink" viewBox="0 0 80 36" width="80" height="36" preserveAspectRatio="xMidYMid meet" style="width: 100%; height: 100%; transform: translate3d(0px, 0px, 0px); content-visibility: visible;"><defs><clipPath id="__lottie_element_129"><rect width="80" height="36" x="0" y="0"></rect></clipPath><clipPath id="__lottie_element_131"><path d="M0,0 L80,0 L80,36 L0,36z"></path></clipPath><clipPath id="__lottie_element_135"><path d="M0,0 L189.875,0 L189.875,36 L0,36z"></path></clipPath><g id="__lottie_element_138"><g transform="matrix(1,0,0,1,0,0)" opacity="1" style="display: block;"><path fill="rgb(217,217,217)" fill-opacity="1" d=" M80,0 C80,0 80,36 80,36 C80,36 0,36 0,36 C0,36 0,0 0,0 C0,0 80,0 80,0z"></path></g></g><mask id="__lottie_element_138_1" mask-type="alpha"><use xlink:href="#__lottie_element_138"></use></mask></defs><g clip-path="url(#__lottie_element_129)"><g clip-path="url(#__lottie_element_131)" transform="matrix(1,0,0,1,0,0)" opacity="1" style="display: block;"><g mask="url(#__lottie_element_138_1)" style="display: block;"><g clip-path="url(#__lottie_element_135)" transform="matrix(1,0,0,1,-44.000003814697266,3.6000003814697266)" opacity="1"><g transform="matrix(1,0,0,1,11,0)" opacity="0.3" style="display: block;"><path fill="rgb(235,250,29)" fill-opacity="1" d=" M85.9800033569336,10.489999771118164 C87.19000244140625,7.309999942779541 91.69000244140625,7.309999942779541 92.9000015258789,10.489999771118164 C92.9000015258789,10.489999771118164 93.83000183105469,10.130000114440918 93.83000183105469,10.130000114440918 C92.29000091552734,6.090000152587891 86.58999633789062,6.090000152587891 85.05000305175781,10.130000114440918 C85.05000305175781,10.130000114440918 85.9800033569336,10.489999771118164 85.9800033569336,10.489999771118164 C85.9800033569336,10.489999771118164 85.9800033569336,10.489999771118164 85.9800033569336,10.489999771118164z M41.2599983215332,10.489999771118164 C42.470001220703125,7.309999942779541 46.970001220703125,7.309999942779541 48.18000030517578,10.489999771118164 C48.18000030517578,10.489999771118164 49.11000061035156,10.130000114440918 49.11000061035156,10.130000114440918 C47.56999969482422,6.090000152587891 41.869998931884766,6.090000152587891 40.33000183105469,10.130000114440918 C40.33000183105469,10.130000114440918 41.2599983215332,10.489999771118164 41.2599983215332,10.489999771118164 C41.2599983215332,10.489999771118164 41.2599983215332,10.489999771118164 41.2599983215332,10.489999771118164z M130.6999969482422,10.489999771118164 C131.91000366210938,7.309999942779541 136.39999389648438,7.309999942779541 137.61000061035156,10.489999771118164 C137.61000061035156,10.489999771118164 138.5500030517578,10.130000114440918 138.5500030517578,10.130000114440918 C137.00999450683594,6.090000152587891 131.3000030517578,6.090000152587891 129.75999450683594,10.130000114440918 C129.75999450683594,10.130000114440918 130.6999969482422,10.489999771118164 130.6999969482422,10.489999771118164 C130.6999969482422,10.489999771118164 130.6999969482422,10.489999771118164 130.6999969482422,10.489999771118164z M153.05999755859375,10.489999771118164 C154.27000427246094,7.309999942779541 158.75999450683594,7.309999942779541 159.97000122070312,10.489999771118164 C159.97000122070312,10.489999771118164 160.91000366210938,10.130000114440918 160.91000366210938,10.130000114440918 C159.3699951171875,6.090000152587891 153.66000366210938,6.090000152587891 152.1199951171875,10.130000114440918 C152.1199951171875,10.130000114440918 153.05999755859375,10.489999771118164 153.05999755859375,10.489999771118164 C153.05999755859375,10.489999771118164 153.05999755859375,10.489999771118164 153.05999755859375,10.489999771118164z M108.33999633789062,10.489999771118164 C109.55000305175781,7.309999942779541 114.05000305175781,7.309999942779541 115.26000213623047,10.489999771118164 C115.26000213623047,10.489999771118164 116.19000244140625,10.130000114440918 116.19000244140625,10.130000114440918 C114.6500015258789,6.090000152587891 108.94000244140625,6.090000152587891 107.4000015258789,10.130000114440918 C107.4000015258789,10.130000114440918 108.33999633789062,10.489999771118164 108.33999633789062,10.489999771118164 C108.33999633789062,10.489999771118164 108.33999633789062,10.489999771118164 108.33999633789062,10.489999771118164z M63.619998931884766,10.489999771118164 C64.83000183105469,7.309999942779541 69.33000183105469,7.309999942779541 70.54000091552734,10.489999771118164 C70.54000091552734,10.489999771118164 71.47000122070312,10.130000114440918 71.47000122070312,10.130000114440918 C69.93000030517578,6.090000152587891 64.2300033569336,6.090000152587891 62.689998626708984,10.130000114440918 C62.689998626708984,10.130000114440918 63.619998931884766,10.489999771118164 63.619998931884766,10.489999771118164 C63.619998931884766,10.489999771118164 63.619998931884766,10.489999771118164 63.619998931884766,10.489999771118164z M26.75,10.130000114440918 C25.209999084472656,6.090000152587891 19.510000228881836,6.090000152587891 17.969999313354492,10.130000114440918 C17.969999313354492,10.130000114440918 18.899999618530273,10.489999771118164 18.899999618530273,10.489999771118164 C20.110000610351562,7.309999942779541 24.610000610351562,7.309999942779541 25.81999969482422,10.489999771118164 C25.81999969482422,10.489999771118164 26.75,10.130000114440918 26.75,10.130000114440918 C26.75,10.130000114440918 26.75,10.130000114440918 26.75,10.130000114440918z M29.149999618530273,19.229999542236328 C30.690000534057617,23.270000457763672 36.38999938964844,23.270000457763672 37.93000030517578,19.229999542236328 C37.93000030517578,19.229999542236328 37,18.8799991607666 37,18.8799991607666 C35.790000915527344,22.059999465942383 31.290000915527344,22.059999465942383 30.079999923706055,18.8799991607666 C30.079999923706055,18.8799991607666 29.149999618530273,19.229999542236328 29.149999618530273,19.229999542236328 C29.149999618530273,19.229999542236328 29.149999618530273,19.229999542236328 29.149999618530273,19.229999542236328z M6.690000057220459,19.690000534057617 C8.300000190734863,23.639999389648438 13.920000076293945,23.579999923706055 15.4399995803833,19.59000015258789 C15.4399995803833,19.59000015258789 14.5,19.229999542236328 14.5,19.229999542236328 C13.3100004196167,22.3700008392334 8.890000343322754,22.43000030517578 7.619999885559082,19.31999969482422 C7.619999885559082,19.31999969482422 6.690000057220459,19.690000534057617 6.690000057220459,19.690000534057617 C6.690000057220459,19.690000534057617 6.690000057220459,19.690000534057617 6.690000057220459,19.690000534057617z M51.5099983215332,19.229999542236328 C53.04999923706055,23.270000457763672 58.75,23.270000457763672 60.290000915527344,19.229999542236328 C60.290000915527344,19.229999542236328 59.36000061035156,18.8799991607666 59.36000061035156,18.8799991607666 C58.150001525878906,22.059999465942383 53.650001525878906,22.059999465942383 52.439998626708984,18.8799991607666 C52.439998626708984,18.8799991607666 51.5099983215332,19.229999542236328 51.5099983215332,19.229999542236328 C51.5099983215332,19.229999542236328 51.5099983215332,19.229999542236328 51.5099983215332,19.229999542236328z M73.87000274658203,19.229999542236328 C75.41000366210938,23.270000457763672 81.11000061035156,23.270000457763672 82.6500015258789,19.229999542236328 C82.6500015258789,19.229999542236328 81.72000122070312,18.8799991607666 81.72000122070312,18.8799991607666 C80.51000213623047,22.059999465942383 76.01000213623047,22.059999465942383 74.80000305175781,18.8799991607666 C74.80000305175781,18.8799991607666 73.87000274658203,19.229999542236328 73.87000274658203,19.229999542236328 C73.87000274658203,19.229999542236328 73.87000274658203,19.229999542236328 73.87000274658203,19.229999542236328z M96.22000122070312,19.229999542236328 C97.76000213623047,23.270000457763672 103.47000122070312,23.270000457763672 105.01000213623047,19.229999542236328 C105.01000213623047,19.229999542236328 104.08000183105469,18.8799991607666 104.08000183105469,18.8799991607666 C102.87000274658203,22.059999465942383 98.37000274658203,22.059999465942383 97.16000366210938,18.8799991607666 C97.16000366210938,18.8799991607666 96.22000122070312,19.229999542236328 96.22000122070312,19.229999542236328 C96.22000122070312,19.229999542236328 96.22000122070312,19.229999542236328 96.22000122070312,19.229999542236328z M118.58000183105469,19.229999542236328 C120.12000274658203,23.270000457763672 125.83000183105469,23.270000457763672 127.37000274658203,19.229999542236328 C127.37000274658203,19.229999542236328 126.43000030517578,18.8799991607666 126.43000030517578,18.8799991607666 C125.22000122070312,22.059999465942383 120.7300033569336,22.059999465942383 119.5199966430664,18.8799991607666 C119.5199966430664,18.8799991607666 118.58000183105469,19.229999542236328 118.58000183105469,19.229999542236328 C118.58000183105469,19.229999542236328 118.58000183105469,19.229999542236328 118.58000183105469,19.229999542236328z M140.94000244140625,19.229999542236328 C142.47999572753906,23.270000457763672 148.19000244140625,23.270000457763672 149.72999572753906,19.229999542236328 C149.72999572753906,19.229999542236328 148.7899932861328,18.8799991607666 148.7899932861328,18.8799991607666 C147.5800018310547,22.059999465942383 143.08999633789062,22.059999465942383 141.8800048828125,18.8799991607666 C141.8800048828125,18.8799991607666 140.94000244140625,19.229999542236328 140.94000244140625,19.229999542236328 C140.94000244140625,19.229999542236328 140.94000244140625,19.229999542236328 140.94000244140625,19.229999542236328z M163.44000244140625,19.59000015258789 C164.9600067138672,23.579999923706055 170.57000732421875,23.639999389648438 172.17999267578125,19.690000534057617 C172.17999267578125,19.690000534057617 171.25999450683594,19.31999969482422 171.25999450683594,19.31999969482422 C169.99000549316406,22.43000030517578 165.55999755859375,22.3700008392334 164.3699951171875,19.229999542236328 C164.3699951171875,19.229999542236328 163.44000244140625,19.59000015258789 163.44000244140625,19.59000015258789 C163.44000244140625,19.59000015258789 163.44000244140625,19.59000015258789 163.44000244140625,19.59000015258789z M172.17999267578125,19.690000534057617 C172.17999267578125,19.690000534057617 179.33999633789062,2.1700000762939453 179.33999633789062,2.1700000762939453 C179.33999633789062,2.1700000762939453 178.41000366210938,1.7899999618530273 178.41000366210938,1.7899999618530273 C178.41000366210938,1.7899999618530273 171.25999450683594,19.31999969482422 171.25999450683594,19.31999969482422 C171.25999450683594,19.31999969482422 172.17999267578125,19.690000534057617 172.17999267578125,19.690000534057617 C172.17999267578125,19.690000534057617 172.17999267578125,19.690000534057617 172.17999267578125,19.690000534057617z M159.97000122070312,10.489999771118164 C159.97000122070312,10.489999771118164 163.44000244140625,19.59000015258789 163.44000244140625,19.59000015258789 C163.44000244140625,19.59000015258789 164.3699951171875,19.229999542236328 164.3699951171875,19.229999542236328 C164.3699951171875,19.229999542236328 160.91000366210938,10.130000114440918 160.91000366210938,10.130000114440918 C160.91000366210938,10.130000114440918 159.97000122070312,10.489999771118164 159.97000122070312,10.489999771118164 C159.97000122070312,10.489999771118164 159.97000122070312,10.489999771118164 159.97000122070312,10.489999771118164z M149.72999572753906,19.229999542236328 C149.72999572753906,19.229999542236328 153.05999755859375,10.489999771118164 153.05999755859375,10.489999771118164 C153.05999755859375,10.489999771118164 152.1199951171875,10.130000114440918 152.1199951171875,10.130000114440918 C152.1199951171875,10.130000114440918 148.7899932861328,18.8799991607666 148.7899932861328,18.8799991607666 C148.7899932861328,18.8799991607666 149.72999572753906,19.229999542236328 149.72999572753906,19.229999542236328 C149.72999572753906,19.229999542236328 149.72999572753906,19.229999542236328 149.72999572753906,19.229999542236328z M137.61000061035156,10.489999771118164 C137.61000061035156,10.489999771118164 140.94000244140625,19.229999542236328 140.94000244140625,19.229999542236328 C140.94000244140625,19.229999542236328 141.8800048828125,18.8799991607666 141.8800048828125,18.8799991607666 C141.8800048828125,18.8799991607666 138.5500030517578,10.130000114440918 138.5500030517578,10.130000114440918 C138.5500030517578,10.130000114440918 137.61000061035156,10.489999771118164 137.61000061035156,10.489999771118164 C137.61000061035156,10.489999771118164 137.61000061035156,10.489999771118164 137.61000061035156,10.489999771118164z M127.37000274658203,19.229999542236328 C127.37000274658203,19.229999542236328 130.6999969482422,10.489999771118164 130.6999969482422,10.489999771118164 C130.6999969482422,10.489999771118164 129.75999450683594,10.130000114440918 129.75999450683594,10.130000114440918 C129.75999450683594,10.130000114440918 126.43000030517578,18.8799991607666 126.43000030517578,18.8799991607666 C126.43000030517578,18.8799991607666 127.37000274658203,19.229999542236328 127.37000274658203,19.229999542236328 C127.37000274658203,19.229999542236328 127.37000274658203,19.229999542236328 127.37000274658203,19.229999542236328z M115.26000213623047,10.489999771118164 C115.26000213623047,10.489999771118164 118.58000183105469,19.229999542236328 118.58000183105469,19.229999542236328 C118.58000183105469,19.229999542236328 119.5199966430664,18.8799991607666 119.5199966430664,18.8799991607666 C119.5199966430664,18.8799991607666 116.19000244140625,10.130000114440918 116.19000244140625,10.130000114440918 C116.19000244140625,10.130000114440918 115.26000213623047,10.489999771118164 115.26000213623047,10.489999771118164 C115.26000213623047,10.489999771118164 115.26000213623047,10.489999771118164 115.26000213623047,10.489999771118164z M105.01000213623047,19.229999542236328 C105.01000213623047,19.229999542236328 108.33999633789062,10.489999771118164 108.33999633789062,10.489999771118164 C108.33999633789062,10.489999771118164 107.4000015258789,10.130000114440918 107.4000015258789,10.130000114440918 C107.4000015258789,10.130000114440918 104.08000183105469,18.8799991607666 104.08000183105469,18.8799991607666 C104.08000183105469,18.8799991607666 105.01000213623047,19.229999542236328 105.01000213623047,19.229999542236328 C105.01000213623047,19.229999542236328 105.01000213623047,19.229999542236328 105.01000213623047,19.229999542236328z M92.9000015258789,10.489999771118164 C92.9000015258789,10.489999771118164 96.22000122070312,19.229999542236328 96.22000122070312,19.229999542236328 C96.22000122070312,19.229999542236328 97.16000366210938,18.8799991607666 97.16000366210938,18.8799991607666 C97.16000366210938,18.8799991607666 93.83000183105469,10.130000114440918 93.83000183105469,10.130000114440918 C93.83000183105469,10.130000114440918 92.9000015258789,10.489999771118164 92.9000015258789,10.489999771118164 C92.9000015258789,10.489999771118164 92.9000015258789,10.489999771118164 92.9000015258789,10.489999771118164z M82.6500015258789,19.229999542236328 C82.6500015258789,19.229999542236328 85.9800033569336,10.489999771118164 85.9800033569336,10.489999771118164 C85.9800033569336,10.489999771118164 85.05000305175781,10.130000114440918 85.05000305175781,10.130000114440918 C85.05000305175781,10.130000114440918 81.72000122070312,18.8799991607666 81.72000122070312,18.8799991607666 C81.72000122070312,18.8799991607666 82.6500015258789,19.229999542236328 82.6500015258789,19.229999542236328 C82.6500015258789,19.229999542236328 82.6500015258789,19.229999542236328 82.6500015258789,19.229999542236328z M70.54000091552734,10.489999771118164 C70.54000091552734,10.489999771118164 73.87000274658203,19.229999542236328 73.87000274658203,19.229999542236328 C73.87000274658203,19.229999542236328 74.80000305175781,18.8799991607666 74.80000305175781,18.8799991607666 C74.80000305175781,18.8799991607666 71.47000122070312,10.130000114440918 71.47000122070312,10.130000114440918 C71.47000122070312,10.130000114440918 70.54000091552734,10.489999771118164 70.54000091552734,10.489999771118164 C70.54000091552734,10.489999771118164 70.54000091552734,10.489999771118164 70.54000091552734,10.489999771118164z M60.290000915527344,19.229999542236328 C60.290000915527344,19.229999542236328 63.619998931884766,10.489999771118164 63.619998931884766,10.489999771118164 C63.619998931884766,10.489999771118164 62.689998626708984,10.130000114440918 62.689998626708984,10.130000114440918 C62.689998626708984,10.130000114440918 59.36000061035156,18.8799991607666 59.36000061035156,18.8799991607666 C59.36000061035156,18.8799991607666 60.290000915527344,19.229999542236328 60.290000915527344,19.229999542236328 C60.290000915527344,19.229999542236328 60.290000915527344,19.229999542236328 60.290000915527344,19.229999542236328z M48.18000030517578,10.489999771118164 C48.18000030517578,10.489999771118164 51.5099983215332,19.229999542236328 51.5099983215332,19.229999542236328 C51.5099983215332,19.229999542236328 52.439998626708984,18.8799991607666 52.439998626708984,18.8799991607666 C52.439998626708984,18.8799991607666 49.11000061035156,10.130000114440918 49.11000061035156,10.130000114440918 C49.11000061035156,10.130000114440918 48.18000030517578,10.489999771118164 48.18000030517578,10.489999771118164 C48.18000030517578,10.489999771118164 48.18000030517578,10.489999771118164 48.18000030517578,10.489999771118164z M15.4399995803833,19.59000015258789 C15.4399995803833,19.59000015258789 18.899999618530273,10.489999771118164 18.899999618530273,10.489999771118164 C18.899999618530273,10.489999771118164 17.969999313354492,10.130000114440918 17.969999313354492,10.130000114440918 C17.969999313354492,10.130000114440918 14.5,19.229999542236328 14.5,19.229999542236328 C14.5,19.229999542236328 15.4399995803833,19.59000015258789 15.4399995803833,19.59000015258789 C15.4399995803833,19.59000015258789 15.4399995803833,19.59000015258789 15.4399995803833,19.59000015258789z M-0.46000000834465027,2.1700000762939453 C-0.46000000834465027,2.1700000762939453 6.690000057220459,19.690000534057617 6.690000057220459,19.690000534057617 C6.690000057220459,19.690000534057617 7.619999885559082,19.31999969482422 7.619999885559082,19.31999969482422 C7.619999885559082,19.31999969482422 0.46000000834465027,1.7899999618530273 0.46000000834465027,1.7899999618530273 C0.46000000834465027,1.7899999618530273 -0.46000000834465027,2.1700000762939453 -0.46000000834465027,2.1700000762939453 C-0.46000000834465027,2.1700000762939453 -0.46000000834465027,2.1700000762939453 -0.46000000834465027,2.1700000762939453z M37.93000030517578,19.229999542236328 C37.93000030517578,19.229999542236328 41.2599983215332,10.489999771118164 41.2599983215332,10.489999771118164 C41.2599983215332,10.489999771118164 40.33000183105469,10.130000114440918 40.33000183105469,10.130000114440918 C40.33000183105469,10.130000114440918 37,18.8799991607666 37,18.8799991607666 C37,18.8799991607666 37.93000030517578,19.229999542236328 37.93000030517578,19.229999542236328 C37.93000030517578,19.229999542236328 37.93000030517578,19.229999542236328 37.93000030517578,19.229999542236328z M25.81999969482422,10.489999771118164 C25.81999969482422,10.489999771118164 29.149999618530273,19.229999542236328 29.149999618530273,19.229999542236328 C29.149999618530273,19.229999542236328 30.079999923706055,18.8799991607666 30.079999923706055,18.8799991607666 C30.079999923706055,18.8799991607666 26.75,10.130000114440918 26.75,10.130000114440918 C26.75,10.130000114440918 25.81999969482422,10.489999771118164 25.81999969482422,10.489999771118164 C25.81999969482422,10.489999771118164 25.81999969482422,10.489999771118164 25.81999969482422,10.489999771118164z M171.72000122070312,19.510000228881836 C171.72000122070312,19.510000228881836 171.25999450683594,19.31999969482422 171.25999450683594,19.31999969482422 C171.25999450683594,19.31999969482422 171.25999450683594,19.31999969482422 171.25999450683594,19.31999969482422 C171.25999450683594,19.31999969482422 171.72000122070312,19.510000228881836 171.72000122070312,19.510000228881836 C171.72000122070312,19.510000228881836 171.72000122070312,19.510000228881836 171.72000122070312,19.510000228881836z M163.91000366210938,19.40999984741211 C163.91000366210938,19.40999984741211 164.3699951171875,19.229999542236328 164.3699951171875,19.229999542236328 C164.3699951171875,19.229999542236328 164.3699951171875,19.229999542236328 164.3699951171875,19.229999542236328 C164.3699951171875,19.229999542236328 163.91000366210938,19.40999984741211 163.91000366210938,19.40999984741211 C163.91000366210938,19.40999984741211 163.91000366210938,19.40999984741211 163.91000366210938,19.40999984741211z M160.44000244140625,10.3100004196167 C160.44000244140625,10.3100004196167 159.97000122070312,10.489999771118164 159.97000122070312,10.489999771118164 C159.97000122070312,10.489999771118164 159.97000122070312,10.489999771118164 159.97000122070312,10.489999771118164 C159.97000122070312,10.489999771118164 160.44000244140625,10.3100004196167 160.44000244140625,10.3100004196167 C160.44000244140625,10.3100004196167 160.44000244140625,10.3100004196167 160.44000244140625,10.3100004196167z M152.58999633789062,10.3100004196167 C152.58999633789062,10.3100004196167 152.1199951171875,10.130000114440918 152.1199951171875,10.130000114440918 C152.1199951171875,10.130000114440918 152.1199951171875,10.130000114440918 152.1199951171875,10.130000114440918 C152.1199951171875,10.130000114440918 152.58999633789062,10.3100004196167 152.58999633789062,10.3100004196167 C152.58999633789062,10.3100004196167 152.58999633789062,10.3100004196167 152.58999633789062,10.3100004196167z M149.25999450683594,19.049999237060547 C149.25999450683594,19.049999237060547 148.7899932861328,18.8799991607666 148.7899932861328,18.8799991607666 C148.7899932861328,18.8799991607666 148.7899932861328,18.8799991607666 148.7899932861328,18.8799991607666 C148.7899932861328,18.8799991607666 149.25999450683594,19.049999237060547 149.25999450683594,19.049999237060547 C149.25999450683594,19.049999237060547 149.25999450683594,19.049999237060547 149.25999450683594,19.049999237060547z M141.41000366210938,19.049999237060547 C141.41000366210938,19.049999237060547 140.94000244140625,19.229999542236328 140.94000244140625,19.229999542236328 C140.94000244140625,19.229999542236328 140.94000244140625,19.229999542236328 140.94000244140625,19.229999542236328 C140.94000244140625,19.229999542236328 141.41000366210938,19.049999237060547 141.41000366210938,19.049999237060547 C141.41000366210938,19.049999237060547 141.41000366210938,19.049999237060547 141.41000366210938,19.049999237060547z M138.0800018310547,10.3100004196167 C138.0800018310547,10.3100004196167 137.61000061035156,10.489999771118164 137.61000061035156,10.489999771118164 C137.61000061035156,10.489999771118164 137.61000061035156,10.489999771118164 137.61000061035156,10.489999771118164 C137.61000061035156,10.489999771118164 138.0800018310547,10.3100004196167 138.0800018310547,10.3100004196167 C138.0800018310547,10.3100004196167 138.0800018310547,10.3100004196167 138.0800018310547,10.3100004196167z M130.22999572753906,10.3100004196167 C130.22999572753906,10.3100004196167 129.75999450683594,10.130000114440918 129.75999450683594,10.130000114440918 C129.75999450683594,10.130000114440918 129.75999450683594,10.130000114440918 129.75999450683594,10.130000114440918 C129.75999450683594,10.130000114440918 130.22999572753906,10.3100004196167 130.22999572753906,10.3100004196167 C130.22999572753906,10.3100004196167 130.22999572753906,10.3100004196167 130.22999572753906,10.3100004196167z M126.9000015258789,19.049999237060547 C126.9000015258789,19.049999237060547 126.43000030517578,18.8799991607666 126.43000030517578,18.8799991607666 C126.43000030517578,18.8799991607666 126.43000030517578,18.8799991607666 126.43000030517578,18.8799991607666 C126.43000030517578,18.8799991607666 126.9000015258789,19.049999237060547 126.9000015258789,19.049999237060547 C126.9000015258789,19.049999237060547 126.9000015258789,19.049999237060547 126.9000015258789,19.049999237060547z M119.05000305175781,19.049999237060547 C119.05000305175781,19.049999237060547 119.5199966430664,18.8799991607666 119.5199966430664,18.8799991607666 C119.5199966430664,18.8799991607666 119.5199966430664,18.8799991607666 119.5199966430664,18.8799991607666 C119.5199966430664,18.8799991607666 119.05000305175781,19.049999237060547 119.05000305175781,19.049999237060547 C119.05000305175781,19.049999237060547 119.05000305175781,19.049999237060547 119.05000305175781,19.049999237060547z M115.72000122070312,10.3100004196167 C115.72000122070312,10.3100004196167 115.26000213623047,10.489999771118164 115.26000213623047,10.489999771118164 C115.26000213623047,10.489999771118164 115.26000213623047,10.489999771118164 115.26000213623047,10.489999771118164 C115.26000213623047,10.489999771118164 115.72000122070312,10.3100004196167 115.72000122070312,10.3100004196167 C115.72000122070312,10.3100004196167 115.72000122070312,10.3100004196167 115.72000122070312,10.3100004196167z M107.87000274658203,10.3100004196167 C107.87000274658203,10.3100004196167 108.33999633789062,10.489999771118164 108.33999633789062,10.489999771118164 C108.33999633789062,10.489999771118164 108.33999633789062,10.489999771118164 108.33999633789062,10.489999771118164 C108.33999633789062,10.489999771118164 107.87000274658203,10.3100004196167 107.87000274658203,10.3100004196167 C107.87000274658203,10.3100004196167 107.87000274658203,10.3100004196167 107.87000274658203,10.3100004196167z M104.54000091552734,19.049999237060547 C104.54000091552734,19.049999237060547 104.08000183105469,18.8799991607666 104.08000183105469,18.8799991607666 C104.08000183105469,18.8799991607666 104.08000183105469,18.8799991607666 104.08000183105469,18.8799991607666 C104.08000183105469,18.8799991607666 104.54000091552734,19.049999237060547 104.54000091552734,19.049999237060547 C104.54000091552734,19.049999237060547 104.54000091552734,19.049999237060547 104.54000091552734,19.049999237060547z M96.69000244140625,19.049999237060547 C96.69000244140625,19.049999237060547 97.16000366210938,18.8799991607666 97.16000366210938,18.8799991607666 C97.16000366210938,18.8799991607666 97.16000366210938,18.8799991607666 97.16000366210938,18.8799991607666 C97.16000366210938,18.8799991607666 96.69000244140625,19.049999237060547 96.69000244140625,19.049999237060547 C96.69000244140625,19.049999237060547 96.69000244140625,19.049999237060547 96.69000244140625,19.049999237060547z M93.36000061035156,10.3100004196167 C93.36000061035156,10.3100004196167 92.9000015258789,10.489999771118164 92.9000015258789,10.489999771118164 C92.9000015258789,10.489999771118164 92.9000015258789,10.489999771118164 92.9000015258789,10.489999771118164 C92.9000015258789,10.489999771118164 93.36000061035156,10.3100004196167 93.36000061035156,10.3100004196167 C93.36000061035156,10.3100004196167 93.36000061035156,10.3100004196167 93.36000061035156,10.3100004196167z M85.51000213623047,10.3100004196167 C85.51000213623047,10.3100004196167 85.9800033569336,10.489999771118164 85.9800033569336,10.489999771118164 C85.9800033569336,10.489999771118164 85.9800033569336,10.489999771118164 85.9800033569336,10.489999771118164 C85.9800033569336,10.489999771118164 85.51000213623047,10.3100004196167 85.51000213623047,10.3100004196167 C85.51000213623047,10.3100004196167 85.51000213623047,10.3100004196167 85.51000213623047,10.3100004196167z M82.18000030517578,19.049999237060547 C82.18000030517578,19.049999237060547 81.72000122070312,18.8799991607666 81.72000122070312,18.8799991607666 C81.72000122070312,18.8799991607666 81.72000122070312,18.8799991607666 81.72000122070312,18.8799991607666 C81.72000122070312,18.8799991607666 82.18000030517578,19.049999237060547 82.18000030517578,19.049999237060547 C82.18000030517578,19.049999237060547 82.18000030517578,19.049999237060547 82.18000030517578,19.049999237060547z M74.33000183105469,19.049999237060547 C74.33000183105469,19.049999237060547 74.80000305175781,18.8799991607666 74.80000305175781,18.8799991607666 C74.80000305175781,18.8799991607666 74.80000305175781,18.8799991607666 74.80000305175781,18.8799991607666 C74.80000305175781,18.8799991607666 74.33000183105469,19.049999237060547 74.33000183105469,19.049999237060547 C74.33000183105469,19.049999237060547 74.33000183105469,19.049999237060547 74.33000183105469,19.049999237060547z M71,10.3100004196167 C71,10.3100004196167 71.47000122070312,10.130000114440918 71.47000122070312,10.130000114440918 C71.47000122070312,10.130000114440918 71.47000122070312,10.130000114440918 71.47000122070312,10.130000114440918 C71.47000122070312,10.130000114440918 71,10.3100004196167 71,10.3100004196167 C71,10.3100004196167 71,10.3100004196167 71,10.3100004196167z M63.150001525878906,10.3100004196167 C63.150001525878906,10.3100004196167 63.619998931884766,10.489999771118164 63.619998931884766,10.489999771118164 C63.619998931884766,10.489999771118164 63.619998931884766,10.489999771118164 63.619998931884766,10.489999771118164 C63.619998931884766,10.489999771118164 63.150001525878906,10.3100004196167 63.150001525878906,10.3100004196167 C63.150001525878906,10.3100004196167 63.150001525878906,10.3100004196167 63.150001525878906,10.3100004196167z M59.81999969482422,19.049999237060547 C59.81999969482422,19.049999237060547 59.36000061035156,18.8799991607666 59.36000061035156,18.8799991607666 C59.36000061035156,18.8799991607666 59.36000061035156,18.8799991607666 59.36000061035156,18.8799991607666 C59.36000061035156,18.8799991607666 59.81999969482422,19.049999237060547 59.81999969482422,19.049999237060547 C59.81999969482422,19.049999237060547 59.81999969482422,19.049999237060547 59.81999969482422,19.049999237060547z M51.970001220703125,19.049999237060547 C51.970001220703125,19.049999237060547 52.439998626708984,18.8799991607666 52.439998626708984,18.8799991607666 C52.439998626708984,18.8799991607666 52.439998626708984,18.8799991607666 52.439998626708984,18.8799991607666 C52.439998626708984,18.8799991607666 51.970001220703125,19.049999237060547 51.970001220703125,19.049999237060547 C51.970001220703125,19.049999237060547 51.970001220703125,19.049999237060547 51.970001220703125,19.049999237060547z M48.63999938964844,10.3100004196167 C48.63999938964844,10.3100004196167 48.18000030517578,10.489999771118164 48.18000030517578,10.489999771118164 C48.18000030517578,10.489999771118164 48.18000030517578,10.489999771118164 48.18000030517578,10.489999771118164 C48.18000030517578,10.489999771118164 48.63999938964844,10.3100004196167 48.63999938964844,10.3100004196167 C48.63999938964844,10.3100004196167 48.63999938964844,10.3100004196167 48.63999938964844,10.3100004196167z M18.43000030517578,10.3100004196167 C18.43000030517578,10.3100004196167 17.969999313354492,10.130000114440918 17.969999313354492,10.130000114440918 C17.969999313354492,10.130000114440918 17.969999313354492,10.130000114440918 17.969999313354492,10.130000114440918 C17.969999313354492,10.130000114440918 18.43000030517578,10.3100004196167 18.43000030517578,10.3100004196167 C18.43000030517578,10.3100004196167 18.43000030517578,10.3100004196167 18.43000030517578,10.3100004196167z M14.970000267028809,19.40999984741211 C14.970000267028809,19.40999984741211 15.4399995803833,19.59000015258789 15.4399995803833,19.59000015258789 C15.4399995803833,19.59000015258789 15.4399995803833,19.59000015258789 15.4399995803833,19.59000015258789 C15.4399995803833,19.59000015258789 14.970000267028809,19.40999984741211 14.970000267028809,19.40999984741211 C14.970000267028809,19.40999984741211 14.970000267028809,19.40999984741211 14.970000267028809,19.40999984741211z M7.150000095367432,19.510000228881836 C7.150000095367432,19.510000228881836 6.690000057220459,19.690000534057617 6.690000057220459,19.690000534057617 C6.690000057220459,19.690000534057617 6.690000057220459,19.690000534057617 6.690000057220459,19.690000534057617 C6.690000057220459,19.690000534057617 7.150000095367432,19.510000228881836 7.150000095367432,19.510000228881836 C7.150000095367432,19.510000228881836 7.150000095367432,19.510000228881836 7.150000095367432,19.510000228881836z M40.790000915527344,10.3100004196167 C40.790000915527344,10.3100004196167 41.2599983215332,10.489999771118164 41.2599983215332,10.489999771118164 C41.2599983215332,10.489999771118164 41.2599983215332,10.489999771118164 41.2599983215332,10.489999771118164 C41.2599983215332,10.489999771118164 40.790000915527344,10.3100004196167 40.790000915527344,10.3100004196167 C40.790000915527344,10.3100004196167 40.790000915527344,10.3100004196167 40.790000915527344,10.3100004196167z M37.459999084472656,19.049999237060547 C37.459999084472656,19.049999237060547 37,18.8799991607666 37,18.8799991607666 C37,18.8799991607666 37,18.8799991607666 37,18.8799991607666 C37,18.8799991607666 37.459999084472656,19.049999237060547 37.459999084472656,19.049999237060547 C37.459999084472656,19.049999237060547 37.459999084472656,19.049999237060547 37.459999084472656,19.049999237060547z M29.610000610351562,19.049999237060547 C29.610000610351562,19.049999237060547 29.149999618530273,19.229999542236328 29.149999618530273,19.229999542236328 C29.149999618530273,19.229999542236328 29.149999618530273,19.229999542236328 29.149999618530273,19.229999542236328 C29.149999618530273,19.229999542236328 29.610000610351562,19.049999237060547 29.610000610351562,19.049999237060547 C29.610000610351562,19.049999237060547 29.610000610351562,19.049999237060547 29.610000610351562,19.049999237060547z M26.280000686645508,10.3100004196167 C26.280000686645508,10.3100004196167 26.75,10.130000114440918 26.75,10.130000114440918 C26.75,10.130000114440918 26.280000686645508,10.3100004196167 26.280000686645508,10.3100004196167 C26.280000686645508,10.3100004196167 26.280000686645508,10.3100004196167 26.280000686645508,10.3100004196167z"></path></g><g transform="matrix(1,0,0,1,0,0)" opacity="1" style="display: block;"><path fill="rgb(235,250,29)" fill-opacity="1" d=" M86.54000091552734,10.420000076293945 C87.75,7.25 92.25,7.25 93.45999908447266,10.420000076293945 C93.45999908447266,10.420000076293945 94.38999938964844,10.0600004196167 94.38999938964844,10.0600004196167 C92.8499984741211,6.039999961853027 87.1500015258789,6.039999961853027 85.61000061035156,10.0600004196167 C85.61000061035156,10.0600004196167 86.54000091552734,10.420000076293945 86.54000091552734,10.420000076293945 C86.54000091552734,10.420000076293945 86.54000091552734,10.420000076293945 86.54000091552734,10.420000076293945z M41.540000915527344,10.420000076293945 C42.75,7.25 47.25,7.25 48.459999084472656,10.420000076293945 C48.459999084472656,10.420000076293945 49.38999938964844,10.0600004196167 49.38999938964844,10.0600004196167 C47.849998474121094,6.039999961853027 42.150001525878906,6.039999961853027 40.61000061035156,10.0600004196167 C40.61000061035156,10.0600004196167 41.540000915527344,10.420000076293945 41.540000915527344,10.420000076293945 C41.540000915527344,10.420000076293945 41.540000915527344,10.420000076293945 41.540000915527344,10.420000076293945z M131.5399932861328,10.420000076293945 C132.75,7.25 137.25,7.25 138.4600067138672,10.420000076293945 C138.4600067138672,10.420000076293945 139.38999938964844,10.0600004196167 139.38999938964844,10.0600004196167 C137.85000610351562,6.039999961853027 132.14999389648438,6.039999961853027 130.61000061035156,10.0600004196167 C130.61000061035156,10.0600004196167 131.5399932861328,10.420000076293945 131.5399932861328,10.420000076293945 C131.5399932861328,10.420000076293945 131.5399932861328,10.420000076293945 131.5399932861328,10.420000076293945z M154.0399932861328,10.420000076293945 C155.25,7.25 159.75,7.25 160.9600067138672,10.420000076293945 C160.9600067138672,10.420000076293945 161.88999938964844,10.0600004196167 161.88999938964844,10.0600004196167 C160.35000610351562,6.039999961853027 154.64999389648438,6.039999961853027 153.11000061035156,10.0600004196167 C153.11000061035156,10.0600004196167 154.0399932861328,10.420000076293945 154.0399932861328,10.420000076293945 C154.0399932861328,10.420000076293945 154.0399932861328,10.420000076293945 154.0399932861328,10.420000076293945z M109.05000305175781,10.420000076293945 C110.26000213623047,7.25 114.75,7.25 115.95999908447266,10.420000076293945 C115.95999908447266,10.420000076293945 116.88999938964844,10.0600004196167 116.88999938964844,10.0600004196167 C115.3499984741211,6.039999961853027 109.6500015258789,6.039999961853027 108.11000061035156,10.0600004196167 C108.11000061035156,10.0600004196167 109.05000305175781,10.420000076293945 109.05000305175781,10.420000076293945 C109.05000305175781,10.420000076293945 109.05000305175781,10.420000076293945 109.05000305175781,10.420000076293945z M64.04000091552734,10.420000076293945 C65.25,7.25 69.75,7.25 70.95999908447266,10.420000076293945 C70.95999908447266,10.420000076293945 71.88999938964844,10.0600004196167 71.88999938964844,10.0600004196167 C70.3499984741211,6.039999961853027 64.6500015258789,6.039999961853027 63.11000061035156,10.0600004196167 C63.11000061035156,10.0600004196167 64.04000091552734,10.420000076293945 64.04000091552734,10.420000076293945 C64.04000091552734,10.420000076293945 64.04000091552734,10.420000076293945 64.04000091552734,10.420000076293945z M26.889999389648438,10.0600004196167 C25.350000381469727,6.039999961853027 19.649999618530273,6.039999961853027 18.110000610351562,10.0600004196167 C18.110000610351562,10.0600004196167 19.040000915527344,10.420000076293945 19.040000915527344,10.420000076293945 C20.25,7.25 24.75,7.25 25.959999084472656,10.420000076293945 C25.959999084472656,10.420000076293945 26.889999389648438,10.0600004196167 26.889999389648438,10.0600004196167 C26.889999389648438,10.0600004196167 26.889999389648438,10.0600004196167 26.889999389648438,10.0600004196167z M29.360000610351562,19.309999465942383 C30.899999618530273,23.329999923706055 36.599998474121094,23.329999923706055 38.13999938964844,19.309999465942383 C38.13999938964844,19.309999465942383 37.209999084472656,18.950000762939453 37.209999084472656,18.950000762939453 C36,22.1200008392334 31.5,22.1200008392334 30.290000915527344,18.950000762939453 C30.290000915527344,18.950000762939453 29.360000610351562,19.309999465942383 29.360000610351562,19.309999465942383 C29.360000610351562,19.309999465942383 29.360000610351562,19.309999465942383 29.360000610351562,19.309999465942383z M6.769999980926514,19.770000457763672 C8.390000343322754,23.709999084472656 13.979999542236328,23.6299991607666 15.5,19.65999984741211 C15.5,19.65999984741211 14.569999694824219,19.299999237060547 14.569999694824219,19.299999237060547 C13.369999885559082,22.43000030517578 8.960000038146973,22.489999771118164 7.690000057220459,19.389999389648438 C7.690000057220459,19.389999389648438 6.769999980926514,19.770000457763672 6.769999980926514,19.770000457763672 C6.769999980926514,19.770000457763672 6.769999980926514,19.770000457763672 6.769999980926514,19.770000457763672z M51.86000061035156,19.309999465942383 C53.400001525878906,23.329999923706055 59.099998474121094,23.329999923706055 60.63999938964844,19.309999465942383 C60.63999938964844,19.309999465942383 59.709999084472656,18.950000762939453 59.709999084472656,18.950000762939453 C58.5,22.1200008392334 54,22.1200008392334 52.790000915527344,18.950000762939453 C52.790000915527344,18.950000762939453 51.86000061035156,19.309999465942383 51.86000061035156,19.309999465942383 C51.86000061035156,19.309999465942383 51.86000061035156,19.309999465942383 51.86000061035156,19.309999465942383z M74.36000061035156,19.309999465942383 C75.9000015258789,23.329999923706055 81.5999984741211,23.329999923706055 83.13999938964844,19.309999465942383 C83.13999938964844,19.309999465942383 82.20999908447266,18.950000762939453 82.20999908447266,18.950000762939453 C81,22.1200008392334 76.5,22.1200008392334 75.29000091552734,18.950000762939453 C75.29000091552734,18.950000762939453 74.36000061035156,19.309999465942383 74.36000061035156,19.309999465942383 C74.36000061035156,19.309999465942383 74.36000061035156,19.309999465942383 74.36000061035156,19.309999465942383z M96.86000061035156,19.309999465942383 C98.4000015258789,23.329999923706055 104.0999984741211,23.329999923706055 105.63999938964844,19.309999465942383 C105.63999938964844,19.309999465942383 104.70999908447266,18.950000762939453 104.70999908447266,18.950000762939453 C103.5,22.1200008392334 99,22.1200008392334 97.79000091552734,18.950000762939453 C97.79000091552734,18.950000762939453 96.86000061035156,19.309999465942383 96.86000061035156,19.309999465942383 C96.86000061035156,19.309999465942383 96.86000061035156,19.309999465942383 96.86000061035156,19.309999465942383z M119.36000061035156,19.309999465942383 C120.9000015258789,23.329999923706055 126.5999984741211,23.329999923706055 128.13999938964844,19.309999465942383 C128.13999938964844,19.309999465942383 127.20999908447266,18.950000762939453 127.20999908447266,18.950000762939453 C126,22.1200008392334 121.51000213623047,22.1200008392334 120.30000305175781,18.950000762939453 C120.30000305175781,18.950000762939453 119.36000061035156,19.309999465942383 119.36000061035156,19.309999465942383 C119.36000061035156,19.309999465942383 119.36000061035156,19.309999465942383 119.36000061035156,19.309999465942383z M141.86000061035156,19.309999465942383 C143.39999389648438,23.329999923706055 149.10000610351562,23.329999923706055 150.63999938964844,19.309999465942383 C150.63999938964844,19.309999465942383 149.7100067138672,18.950000762939453 149.7100067138672,18.950000762939453 C148.5,22.1200008392334 144,22.1200008392334 142.7899932861328,18.950000762939453 C142.7899932861328,18.950000762939453 141.86000061035156,19.309999465942383 141.86000061035156,19.309999465942383 C141.86000061035156,19.309999465942383 141.86000061035156,19.309999465942383 141.86000061035156,19.309999465942383z M164.5,19.65999984741211 C166.02000427246094,23.6299991607666 171.61000061035156,23.709999084472656 173.22999572753906,19.770000457763672 C173.22999572753906,19.770000457763672 172.30999755859375,19.389999389648438 172.30999755859375,19.389999389648438 C171.0399932861328,22.489999771118164 166.6300048828125,22.43000030517578 165.42999267578125,19.299999237060547 C165.42999267578125,19.299999237060547 164.5,19.65999984741211 164.5,19.65999984741211 C164.5,19.65999984741211 164.5,19.65999984741211 164.5,19.65999984741211z M173.22999572753906,19.770000457763672 C173.22999572753906,19.770000457763672 180.4600067138672,2.1700000762939453 180.4600067138672,2.1700000762939453 C180.4600067138672,2.1700000762939453 179.5399932861328,1.7899999618530273 179.5399932861328,1.7899999618530273 C179.5399932861328,1.7899999618530273 172.30999755859375,19.389999389648438 172.30999755859375,19.389999389648438 C172.30999755859375,19.389999389648438 173.22999572753906,19.770000457763672 173.22999572753906,19.770000457763672 C173.22999572753906,19.770000457763672 173.22999572753906,19.770000457763672 173.22999572753906,19.770000457763672z M160.9600067138672,10.420000076293945 C160.9600067138672,10.420000076293945 164.5,19.65999984741211 164.5,19.65999984741211 C164.5,19.65999984741211 165.42999267578125,19.299999237060547 165.42999267578125,19.299999237060547 C165.42999267578125,19.299999237060547 161.88999938964844,10.0600004196167 161.88999938964844,10.0600004196167 C161.88999938964844,10.0600004196167 160.9600067138672,10.420000076293945 160.9600067138672,10.420000076293945 C160.9600067138672,10.420000076293945 160.9600067138672,10.420000076293945 160.9600067138672,10.420000076293945z M150.63999938964844,19.309999465942383 C150.63999938964844,19.309999465942383 154.0399932861328,10.420000076293945 154.0399932861328,10.420000076293945 C154.0399932861328,10.420000076293945 153.11000061035156,10.0600004196167 153.11000061035156,10.0600004196167 C153.11000061035156,10.0600004196167 149.7100067138672,18.950000762939453 149.7100067138672,18.950000762939453 C149.7100067138672,18.950000762939453 150.63999938964844,19.309999465942383 150.63999938964844,19.309999465942383 C150.63999938964844,19.309999465942383 150.63999938964844,19.309999465942383 150.63999938964844,19.309999465942383z M138.4600067138672,10.420000076293945 C138.4600067138672,10.420000076293945 141.86000061035156,19.309999465942383 141.86000061035156,19.309999465942383 C141.86000061035156,19.309999465942383 142.7899932861328,18.950000762939453 142.7899932861328,18.950000762939453 C142.7899932861328,18.950000762939453 139.38999938964844,10.0600004196167 139.38999938964844,10.0600004196167 C139.38999938964844,10.0600004196167 138.4600067138672,10.420000076293945 138.4600067138672,10.420000076293945 C138.4600067138672,10.420000076293945 138.4600067138672,10.420000076293945 138.4600067138672,10.420000076293945z M128.13999938964844,19.309999465942383 C128.13999938964844,19.309999465942383 131.5399932861328,10.420000076293945 131.5399932861328,10.420000076293945 C131.5399932861328,10.420000076293945 130.61000061035156,10.0600004196167 130.61000061035156,10.0600004196167 C130.61000061035156,10.0600004196167 127.20999908447266,18.950000762939453 127.20999908447266,18.950000762939453 C127.20999908447266,18.950000762939453 128.13999938964844,19.309999465942383 128.13999938964844,19.309999465942383 C128.13999938964844,19.309999465942383 128.13999938964844,19.309999465942383 128.13999938964844,19.309999465942383z M115.95999908447266,10.420000076293945 C115.95999908447266,10.420000076293945 119.36000061035156,19.309999465942383 119.36000061035156,19.309999465942383 C119.36000061035156,19.309999465942383 120.30000305175781,18.950000762939453 120.30000305175781,18.950000762939453 C120.30000305175781,18.950000762939453 116.88999938964844,10.0600004196167 116.88999938964844,10.0600004196167 C116.88999938964844,10.0600004196167 115.95999908447266,10.420000076293945 115.95999908447266,10.420000076293945 C115.95999908447266,10.420000076293945 115.95999908447266,10.420000076293945 115.95999908447266,10.420000076293945z M105.63999938964844,19.309999465942383 C105.63999938964844,19.309999465942383 109.05000305175781,10.420000076293945 109.05000305175781,10.420000076293945 C109.05000305175781,10.420000076293945 108.11000061035156,10.0600004196167 108.11000061035156,10.0600004196167 C108.11000061035156,10.0600004196167 104.70999908447266,18.950000762939453 104.70999908447266,18.950000762939453 C104.70999908447266,18.950000762939453 105.63999938964844,19.309999465942383 105.63999938964844,19.309999465942383 C105.63999938964844,19.309999465942383 105.63999938964844,19.309999465942383 105.63999938964844,19.309999465942383z M93.45999908447266,10.420000076293945 C93.45999908447266,10.420000076293945 96.86000061035156,19.309999465942383 96.86000061035156,19.309999465942383 C96.86000061035156,19.309999465942383 97.79000091552734,18.950000762939453 97.79000091552734,18.950000762939453 C97.79000091552734,18.950000762939453 94.38999938964844,10.0600004196167 94.38999938964844,10.0600004196167 C94.38999938964844,10.0600004196167 93.45999908447266,10.420000076293945 93.45999908447266,10.420000076293945 C93.45999908447266,10.420000076293945 93.45999908447266,10.420000076293945 93.45999908447266,10.420000076293945z M83.13999938964844,19.309999465942383 C83.13999938964844,19.309999465942383 86.54000091552734,10.420000076293945 86.54000091552734,10.420000076293945 C86.54000091552734,10.420000076293945 85.61000061035156,10.0600004196167 85.61000061035156,10.0600004196167 C85.61000061035156,10.0600004196167 82.20999908447266,18.950000762939453 82.20999908447266,18.950000762939453 C82.20999908447266,18.950000762939453 83.13999938964844,19.309999465942383 83.13999938964844,19.309999465942383 C83.13999938964844,19.309999465942383 83.13999938964844,19.309999465942383 83.13999938964844,19.309999465942383z M70.95999908447266,10.420000076293945 C70.95999908447266,10.420000076293945 74.36000061035156,19.309999465942383 74.36000061035156,19.309999465942383 C74.36000061035156,19.309999465942383 75.29000091552734,18.950000762939453 75.29000091552734,18.950000762939453 C75.29000091552734,18.950000762939453 71.88999938964844,10.0600004196167 71.88999938964844,10.0600004196167 C71.88999938964844,10.0600004196167 70.95999908447266,10.420000076293945 70.95999908447266,10.420000076293945 C70.95999908447266,10.420000076293945 70.95999908447266,10.420000076293945 70.95999908447266,10.420000076293945z M60.63999938964844,19.309999465942383 C60.63999938964844,19.309999465942383 64.04000091552734,10.420000076293945 64.04000091552734,10.420000076293945 C64.04000091552734,10.420000076293945 63.11000061035156,10.0600004196167 63.11000061035156,10.0600004196167 C63.11000061035156,10.0600004196167 59.709999084472656,18.950000762939453 59.709999084472656,18.950000762939453 C59.709999084472656,18.950000762939453 60.63999938964844,19.309999465942383 60.63999938964844,19.309999465942383 C60.63999938964844,19.309999465942383 60.63999938964844,19.309999465942383 60.63999938964844,19.309999465942383z M48.459999084472656,10.420000076293945 C48.459999084472656,10.420000076293945 51.86000061035156,19.309999465942383 51.86000061035156,19.309999465942383 C51.86000061035156,19.309999465942383 52.790000915527344,18.950000762939453 52.790000915527344,18.950000762939453 C52.790000915527344,18.950000762939453 49.38999938964844,10.0600004196167 49.38999938964844,10.0600004196167 C49.38999938964844,10.0600004196167 48.459999084472656,10.420000076293945 48.459999084472656,10.420000076293945 C48.459999084472656,10.420000076293945 48.459999084472656,10.420000076293945 48.459999084472656,10.420000076293945z M15.5,19.65999984741211 C15.5,19.65999984741211 19.040000915527344,10.420000076293945 19.040000915527344,10.420000076293945 C19.040000915527344,10.420000076293945 18.110000610351562,10.0600004196167 18.110000610351562,10.0600004196167 C18.110000610351562,10.0600004196167 14.569999694824219,19.299999237060547 14.569999694824219,19.299999237060547 C14.569999694824219,19.299999237060547 15.5,19.65999984741211 15.5,19.65999984741211 C15.5,19.65999984741211 15.5,19.65999984741211 15.5,19.65999984741211z M-0.46000000834465027,2.1700000762939453 C-0.46000000834465027,2.1700000762939453 6.769999980926514,19.770000457763672 6.769999980926514,19.770000457763672 C6.769999980926514,19.770000457763672 7.690000057220459,19.389999389648438 7.690000057220459,19.389999389648438 C7.690000057220459,19.389999389648438 0.46000000834465027,1.7899999618530273 0.46000000834465027,1.7899999618530273 C0.46000000834465027,1.7899999618530273 -0.46000000834465027,2.1700000762939453 -0.46000000834465027,2.1700000762939453 C-0.46000000834465027,2.1700000762939453 -0.46000000834465027,2.1700000762939453 -0.46000000834465027,2.1700000762939453z M38.13999938964844,19.309999465942383 C38.13999938964844,19.309999465942383 41.540000915527344,10.420000076293945 41.540000915527344,10.420000076293945 C41.540000915527344,10.420000076293945 40.61000061035156,10.0600004196167 40.61000061035156,10.0600004196167 C40.61000061035156,10.0600004196167 37.209999084472656,18.950000762939453 37.209999084472656,18.950000762939453 C37.209999084472656,18.950000762939453 38.13999938964844,19.309999465942383 38.13999938964844,19.309999465942383 C38.13999938964844,19.309999465942383 38.13999938964844,19.309999465942383 38.13999938964844,19.309999465942383z M25.959999084472656,10.420000076293945 C25.959999084472656,10.420000076293945 29.360000610351562,19.309999465942383 29.360000610351562,19.309999465942383 C29.360000610351562,19.309999465942383 30.290000915527344,18.950000762939453 30.290000915527344,18.950000762939453 C30.290000915527344,18.950000762939453 26.889999389648438,10.0600004196167 26.889999389648438,10.0600004196167 C26.889999389648438,10.0600004196167 25.959999084472656,10.420000076293945 25.959999084472656,10.420000076293945 C25.959999084472656,10.420000076293945 25.959999084472656,10.420000076293945 25.959999084472656,10.420000076293945z M172.77000427246094,19.579999923706055 C172.77000427246094,19.579999923706055 172.30999755859375,19.389999389648438 172.30999755859375,19.389999389648438 C172.30999755859375,19.389999389648438 172.30999755859375,19.389999389648438 172.30999755859375,19.389999389648438 C172.30999755859375,19.389999389648438 172.77000427246094,19.579999923706055 172.77000427246094,19.579999923706055 C172.77000427246094,19.579999923706055 172.77000427246094,19.579999923706055 172.77000427246094,19.579999923706055z M164.97000122070312,19.479999542236328 C164.97000122070312,19.479999542236328 164.5,19.65999984741211 164.5,19.65999984741211 C164.5,19.65999984741211 164.5,19.65999984741211 164.5,19.65999984741211 C164.5,19.65999984741211 164.97000122070312,19.479999542236328 164.97000122070312,19.479999542236328 C164.97000122070312,19.479999542236328 164.97000122070312,19.479999542236328 164.97000122070312,19.479999542236328z M161.4199981689453,10.239999771118164 C161.4199981689453,10.239999771118164 161.88999938964844,10.0600004196167 161.88999938964844,10.0600004196167 C161.88999938964844,10.0600004196167 161.88999938964844,10.0600004196167 161.88999938964844,10.0600004196167 C161.88999938964844,10.0600004196167 161.4199981689453,10.239999771118164 161.4199981689453,10.239999771118164 C161.4199981689453,10.239999771118164 161.4199981689453,10.239999771118164 161.4199981689453,10.239999771118164z M153.5800018310547,10.239999771118164 C153.5800018310547,10.239999771118164 153.11000061035156,10.0600004196167 153.11000061035156,10.0600004196167 C153.11000061035156,10.0600004196167 153.5800018310547,10.239999771118164 153.5800018310547,10.239999771118164 C153.5800018310547,10.239999771118164 153.5800018310547,10.239999771118164 153.5800018310547,10.239999771118164z M150.1699981689453,19.1299991607666 C150.1699981689453,19.1299991607666 150.63999938964844,19.309999465942383 150.63999938964844,19.309999465942383 C150.63999938964844,19.309999465942383 150.1699981689453,19.1299991607666 150.1699981689453,19.1299991607666 C150.1699981689453,19.1299991607666 150.1699981689453,19.1299991607666 150.1699981689453,19.1299991607666z M142.3300018310547,19.1299991607666 C142.3300018310547,19.1299991607666 141.86000061035156,19.309999465942383 141.86000061035156,19.309999465942383 C141.86000061035156,19.309999465942383 141.86000061035156,19.309999465942383 141.86000061035156,19.309999465942383 C141.86000061035156,19.309999465942383 142.3300018310547,19.1299991607666 142.3300018310547,19.1299991607666 C142.3300018310547,19.1299991607666 142.3300018310547,19.1299991607666 142.3300018310547,19.1299991607666z M138.9199981689453,10.239999771118164 C138.9199981689453,10.239999771118164 139.38999938964844,10.0600004196167 139.38999938964844,10.0600004196167 C139.38999938964844,10.0600004196167 139.38999938964844,10.0600004196167 139.38999938964844,10.0600004196167 C139.38999938964844,10.0600004196167 138.9199981689453,10.239999771118164 138.9199981689453,10.239999771118164 C138.9199981689453,10.239999771118164 138.9199981689453,10.239999771118164 138.9199981689453,10.239999771118164z M131.0800018310547,10.239999771118164 C131.0800018310547,10.239999771118164 130.61000061035156,10.0600004196167 130.61000061035156,10.0600004196167 C130.61000061035156,10.0600004196167 131.0800018310547,10.239999771118164 131.0800018310547,10.239999771118164 C131.0800018310547,10.239999771118164 131.0800018310547,10.239999771118164 131.0800018310547,10.239999771118164z M127.66999816894531,19.1299991607666 C127.66999816894531,19.1299991607666 128.13999938964844,19.309999465942383 128.13999938964844,19.309999465942383 C128.13999938964844,19.309999465942383 127.66999816894531,19.1299991607666 127.66999816894531,19.1299991607666 C127.66999816894531,19.1299991607666 127.66999816894531,19.1299991607666 127.66999816894531,19.1299991607666z M119.83000183105469,19.1299991607666 C119.83000183105469,19.1299991607666 120.30000305175781,18.950000762939453 120.30000305175781,18.950000762939453 C120.30000305175781,18.950000762939453 120.30000305175781,18.950000762939453 120.30000305175781,18.950000762939453 C120.30000305175781,18.950000762939453 119.83000183105469,19.1299991607666 119.83000183105469,19.1299991607666 C119.83000183105469,19.1299991607666 119.83000183105469,19.1299991607666 119.83000183105469,19.1299991607666z M116.41999816894531,10.239999771118164 C116.41999816894531,10.239999771118164 116.88999938964844,10.0600004196167 116.88999938964844,10.0600004196167 C116.88999938964844,10.0600004196167 116.88999938964844,10.0600004196167 116.88999938964844,10.0600004196167 C116.88999938964844,10.0600004196167 116.41999816894531,10.239999771118164 116.41999816894531,10.239999771118164 C116.41999816894531,10.239999771118164 116.41999816894531,10.239999771118164 116.41999816894531,10.239999771118164z M108.58000183105469,10.239999771118164 C108.58000183105469,10.239999771118164 109.05000305175781,10.420000076293945 109.05000305175781,10.420000076293945 C109.05000305175781,10.420000076293945 109.05000305175781,10.420000076293945 109.05000305175781,10.420000076293945 C109.05000305175781,10.420000076293945 108.58000183105469,10.239999771118164 108.58000183105469,10.239999771118164 C108.58000183105469,10.239999771118164 108.58000183105469,10.239999771118164 108.58000183105469,10.239999771118164z M105.16999816894531,19.1299991607666 C105.16999816894531,19.1299991607666 105.63999938964844,19.309999465942383 105.63999938964844,19.309999465942383 C105.63999938964844,19.309999465942383 105.16999816894531,19.1299991607666 105.16999816894531,19.1299991607666 C105.16999816894531,19.1299991607666 105.16999816894531,19.1299991607666 105.16999816894531,19.1299991607666z M97.33000183105469,19.1299991607666 C97.33000183105469,19.1299991607666 97.79000091552734,18.950000762939453 97.79000091552734,18.950000762939453 C97.79000091552734,18.950000762939453 97.79000091552734,18.950000762939453 97.79000091552734,18.950000762939453 C97.79000091552734,18.950000762939453 97.33000183105469,19.1299991607666 97.33000183105469,19.1299991607666 C97.33000183105469,19.1299991607666 97.33000183105469,19.1299991607666 97.33000183105469,19.1299991607666z M93.91999816894531,10.239999771118164 C93.91999816894531,10.239999771118164 94.38999938964844,10.0600004196167 94.38999938964844,10.0600004196167 C94.38999938964844,10.0600004196167 94.38999938964844,10.0600004196167 94.38999938964844,10.0600004196167 C94.38999938964844,10.0600004196167 93.91999816894531,10.239999771118164 93.91999816894531,10.239999771118164 C93.91999816894531,10.239999771118164 93.91999816894531,10.239999771118164 93.91999816894531,10.239999771118164z M86.08000183105469,10.239999771118164 C86.08000183105469,10.239999771118164 86.54000091552734,10.420000076293945 86.54000091552734,10.420000076293945 C86.54000091552734,10.420000076293945 86.54000091552734,10.420000076293945 86.54000091552734,10.420000076293945 C86.54000091552734,10.420000076293945 86.08000183105469,10.239999771118164 86.08000183105469,10.239999771118164 C86.08000183105469,10.239999771118164 86.08000183105469,10.239999771118164 86.08000183105469,10.239999771118164z M82.66999816894531,19.1299991607666 C82.66999816894531,19.1299991607666 83.13999938964844,19.309999465942383 83.13999938964844,19.309999465942383 C83.13999938964844,19.309999465942383 82.66999816894531,19.1299991607666 82.66999816894531,19.1299991607666 C82.66999816894531,19.1299991607666 82.66999816894531,19.1299991607666 82.66999816894531,19.1299991607666z M74.83000183105469,19.1299991607666 C74.83000183105469,19.1299991607666 75.29000091552734,18.950000762939453 75.29000091552734,18.950000762939453 C75.29000091552734,18.950000762939453 75.29000091552734,18.950000762939453 75.29000091552734,18.950000762939453 C75.29000091552734,18.950000762939453 74.83000183105469,19.1299991607666 74.83000183105469,19.1299991607666 C74.83000183105469,19.1299991607666 74.83000183105469,19.1299991607666 74.83000183105469,19.1299991607666z M71.41999816894531,10.239999771118164 C71.41999816894531,10.239999771118164 71.88999938964844,10.0600004196167 71.88999938964844,10.0600004196167 C71.88999938964844,10.0600004196167 71.88999938964844,10.0600004196167 71.88999938964844,10.0600004196167 C71.88999938964844,10.0600004196167 71.41999816894531,10.239999771118164 71.41999816894531,10.239999771118164 C71.41999816894531,10.239999771118164 71.41999816894531,10.239999771118164 71.41999816894531,10.239999771118164z M63.58000183105469,10.239999771118164 C63.58000183105469,10.239999771118164 64.04000091552734,10.420000076293945 64.04000091552734,10.420000076293945 C64.04000091552734,10.420000076293945 64.04000091552734,10.420000076293945 64.04000091552734,10.420000076293945 C64.04000091552734,10.420000076293945 63.58000183105469,10.239999771118164 63.58000183105469,10.239999771118164 C63.58000183105469,10.239999771118164 63.58000183105469,10.239999771118164 63.58000183105469,10.239999771118164z M60.16999816894531,19.1299991607666 C60.16999816894531,19.1299991607666 59.709999084472656,18.950000762939453 59.709999084472656,18.950000762939453 C59.709999084472656,18.950000762939453 59.709999084472656,18.950000762939453 59.709999084472656,18.950000762939453 C59.709999084472656,18.950000762939453 60.16999816894531,19.1299991607666 60.16999816894531,19.1299991607666 C60.16999816894531,19.1299991607666 60.16999816894531,19.1299991607666 60.16999816894531,19.1299991607666z M52.33000183105469,19.1299991607666 C52.33000183105469,19.1299991607666 51.86000061035156,19.309999465942383 51.86000061035156,19.309999465942383 C51.86000061035156,19.309999465942383 51.86000061035156,19.309999465942383 51.86000061035156,19.309999465942383 C51.86000061035156,19.309999465942383 52.33000183105469,19.1299991607666 52.33000183105469,19.1299991607666 C52.33000183105469,19.1299991607666 52.33000183105469,19.1299991607666 52.33000183105469,19.1299991607666z M48.91999816894531,10.239999771118164 C48.91999816894531,10.239999771118164 48.459999084472656,10.420000076293945 48.459999084472656,10.420000076293945 C48.459999084472656,10.420000076293945 48.459999084472656,10.420000076293945 48.459999084472656,10.420000076293945 C48.459999084472656,10.420000076293945 48.91999816894531,10.239999771118164 48.91999816894531,10.239999771118164 C48.91999816894531,10.239999771118164 48.91999816894531,10.239999771118164 48.91999816894531,10.239999771118164z M18.579999923706055,10.239999771118164 C18.579999923706055,10.239999771118164 18.110000610351562,10.0600004196167 18.110000610351562,10.0600004196167 C18.110000610351562,10.0600004196167 18.110000610351562,10.0600004196167 18.110000610351562,10.0600004196167 C18.110000610351562,10.0600004196167 18.579999923706055,10.239999771118164 18.579999923706055,10.239999771118164 C18.579999923706055,10.239999771118164 18.579999923706055,10.239999771118164 18.579999923706055,10.239999771118164z M15.039999961853027,19.479999542236328 C15.039999961853027,19.479999542236328 15.5,19.65999984741211 15.5,19.65999984741211 C15.5,19.65999984741211 15.5,19.65999984741211 15.5,19.65999984741211 C15.5,19.65999984741211 15.039999961853027,19.479999542236328 15.039999961853027,19.479999542236328 C15.039999961853027,19.479999542236328 15.039999961853027,19.479999542236328 15.039999961853027,19.479999542236328z M7.230000019073486,19.579999923706055 C7.230000019073486,19.579999923706055 6.769999980926514,19.770000457763672 6.769999980926514,19.770000457763672 C6.769999980926514,19.770000457763672 6.769999980926514,19.770000457763672 6.769999980926514,19.770000457763672 C6.769999980926514,19.770000457763672 7.230000019073486,19.579999923706055 7.230000019073486,19.579999923706055 C7.230000019073486,19.579999923706055 7.230000019073486,19.579999923706055 7.230000019073486,19.579999923706055z M41.08000183105469,10.239999771118164 C41.08000183105469,10.239999771118164 41.540000915527344,10.420000076293945 41.540000915527344,10.420000076293945 C41.540000915527344,10.420000076293945 41.540000915527344,10.420000076293945 41.540000915527344,10.420000076293945 C41.540000915527344,10.420000076293945 41.08000183105469,10.239999771118164 41.08000183105469,10.239999771118164 C41.08000183105469,10.239999771118164 41.08000183105469,10.239999771118164 41.08000183105469,10.239999771118164z M37.66999816894531,19.1299991607666 C37.66999816894531,19.1299991607666 38.13999938964844,19.309999465942383 38.13999938964844,19.309999465942383 C38.13999938964844,19.309999465942383 38.13999938964844,19.309999465942383 38.13999938964844,19.309999465942383 C38.13999938964844,19.309999465942383 37.66999816894531,19.1299991607666 37.66999816894531,19.1299991607666 C37.66999816894531,19.1299991607666 37.66999816894531,19.1299991607666 37.66999816894531,19.1299991607666z M29.829999923706055,19.1299991607666 C29.829999923706055,19.1299991607666 30.290000915527344,18.950000762939453 30.290000915527344,18.950000762939453 C30.290000915527344,18.950000762939453 30.290000915527344,18.950000762939453 30.290000915527344,18.950000762939453 C30.290000915527344,18.950000762939453 29.829999923706055,19.1299991607666 29.829999923706055,19.1299991607666 C29.829999923706055,19.1299991607666 29.829999923706055,19.1299991607666 29.829999923706055,19.1299991607666z M26.420000076293945,10.239999771118164 C26.420000076293945,10.239999771118164 25.959999084472656,10.420000076293945 25.959999084472656,10.420000076293945 C25.959999084472656,10.420000076293945 26.420000076293945,10.239999771118164 26.420000076293945,10.239999771118164 C26.420000076293945,10.239999771118164 26.420000076293945,10.239999771118164 26.420000076293945,10.239999771118164z"></path></g></g></g></g></g></svg>