<svg xmlns="http://www.w3.org/2000/svg" xmlns:xlink="http://www.w3.org/1999/xlink" viewBox="0 0 84 12" width="84" height="12" preserveAspectRatio="xMidYMid meet" style="width: 100%; height: 100%; transform: translate3d(0px, 0px, 0px); content-visibility: visible;"><defs><clipPath id="__lottie_element_5"><rect width="84" height="12" x="0" y="0"></rect></clipPath></defs><g clip-path="url(#__lottie_element_5)"><g transform="matrix(0,1,-1,0,84,0)" opacity="1" style="display: block;"><path fill="rgb(197,182,174)" fill-opacity="1" d=" M4,2 C4,3.0999999046325684 3.0999999046325684,4 2,4 C0.8999999761581421,4 0,3.0999999046325684 0,2 C0,0.8999999761581421 0.8999999761581421,0 2,0 C3.0999999046325684,0 4,0.8999999761581421 4,2 C4,2 4,2 4,2z"></path></g><g transform="matrix(0,1,-1,0,76,0)" opacity="1" style="display: block;"><path fill="rgb(197,182,174)" fill-opacity="1" d=" M4,2 C4,3.0999999046325684 3.0999999046325684,4 2,4 C0.8999999761581421,4 0,3.0999999046325684 0,2 C0,0.8999999761581421 0.8999999761581421,0 2,0 C3.0999999046325684,0 4,0.8999999761581421 4,2 C4,2 4,2 4,2z"></path></g><g transform="matrix(0,1,-1,0,76,8)" opacity="1" style="display: block;"><path fill="rgb(197,182,174)" fill-opacity="1" d=" M4,2 C4,3.0999999046325684 3.0999999046325684,4 2,4 C0.8999999761581421,4 0,3.0999999046325684 0,2 C0,0.8999999761581421 0.8999999761581421,0 2,0 C3.0999999046325684,0 4,0.8999999761581421 4,2 C4,2 4,2 4,2z"></path></g><g transform="matrix(0,1,-1,0,68,8)" opacity="1" style="display: block;"><path fill="rgb(197,182,174)" fill-opacity="1" d=" M4,2 C4,3.0999999046325684 3.0999999046325684,4 2,4 C0.8999999761581421,4 0,3.0999999046325684 0,2 C0,0.8999999761581421 0.8999999761581421,0 2,0 C3.0999999046325684,0 4,0.8999999761581421 4,2 C4,2 4,2 4,2z"></path></g><g transform="matrix(0,1,-1,0,60,0)" opacity="1" style="display: block;"><path fill="rgb(197,182,174)" fill-opacity="1" d=" M4,2 C4,3.0999999046325684 3.0999999046325684,4 2,4 C0.8999999761581421,4 0,3.0999999046325684 0,2 C0,0.8999999761581421 0.8999999761581421,0 2,0 C3.0999999046325684,0 4,0.8999999761581421 4,2 C4,2 4,2 4,2z"></path></g><g transform="matrix(0,1,-1,0,52,0)" opacity="1" style="display: block;"><path fill="rgb(197,182,174)" fill-opacity="1" d=" M4,2 C4,3.0999999046325684 3.0999999046325684,4 2,4 C0.8999999761581421,4 0,3.0999999046325684 0,2 C0,0.8999999761581421 0.8999999761581421,0 2,0 C3.0999999046325684,0 4,0.8999999761581421 4,2 C4,2 4,2 4,2z"></path></g><g transform="matrix(0,1,-1,0,44,0)" opacity="1" style="display: block;"><path fill="rgb(197,182,174)" fill-opacity="1" d=" M4,2 C4,3.0999999046325684 3.0999999046325684,4 2,4 C0.8999999761581421,4 0,3.0999999046325684 0,2 C0,0.8999999761581421 0.8999999761581421,0 2,0 C3.0999999046325684,0 4,0.8999999761581421 4,2 C4,2 4,2 4,2z"></path></g><g transform="matrix(0,1,-1,0,36,8)" opacity="1" style="display: block;"><path fill="rgb(197,182,174)" fill-opacity="1" d=" M4,2 C4,3.0999999046325684 3.0999999046325684,4 2,4 C0.8999999761581421,4 0,3.0999999046325684 0,2 C0,0.8999999761581421 0.8999999761581421,0 2,0 C3.0999999046325684,0 4,0.8999999761581421 4,2 C4,2 4,2 4,2z"></path></g><g transform="matrix(0,1,-1,0,28,0)" opacity="1" style="display: block;"><path fill="rgb(197,182,174)" fill-opacity="1" d=" M4,2 C4,3.0999999046325684 3.0999999046325684,4 2,4 C0.8999999761581421,4 0,3.0999999046325684 0,2 C0,0.8999999761581421 0.8999999761581421,0 2,0 C3.0999999046325684,0 4,0.8999999761581421 4,2 C4,2 4,2 4,2z"></path></g><g transform="matrix(0,1,-1,0,20,8)" opacity="1" style="display: block;"><path fill="rgb(197,182,174)" fill-opacity="1" d=" M4,2 C4,3.0999999046325684 3.0999999046325684,4 2,4 C0.8999999761581421,4 0,3.0999999046325684 0,2 C0,0.8999999761581421 0.8999999761581421,0 2,0 C3.0999999046325684,0 4,0.8999999761581421 4,2 C4,2 4,2 4,2z"></path></g><g transform="matrix(0,1,-1,0,12,8)" opacity="1" style="display: block;"><path fill="rgb(197,182,174)" fill-opacity="1" d=" M4,2 C4,3.0999999046325684 3.0999999046325684,4 2,4 C0.8999999761581421,4 0,3.0999999046325684 0,2 C0,0.8999999761581421 0.8999999761581421,0 2,0 C3.0999999046325684,0 4,0.8999999761581421 4,2 C4,2 4,2 4,2z"></path></g><g transform="matrix(0,1,-1,0,4,0)" opacity="1" style="display: block;"><path fill="rgb(197,182,174)" fill-opacity="1" d=" M4,2 C4,3.0999999046325684 3.0999999046325684,4 2,4 C0.8999999761581421,4 0,3.0999999046325684 0,2 C0,0.8999999761581421 0.8999999761581421,0 2,0 C3.0999999046325684,0 4,0.8999999761581421 4,2 C4,2 4,2 4,2z"></path></g></g></svg>