<svg xmlns="http://www.w3.org/2000/svg" xmlns:xlink="http://www.w3.org/1999/xlink" viewBox="0 0 24 100" width="24" height="100" preserveAspectRatio="xMidYMid meet" style="width: 100%; height: 100%; transform: translate3d(0px, 0px, 0px); content-visibility: visible;"><defs><clipPath id="__lottie_element_147"><rect width="24" height="100" x="0" y="0"></rect></clipPath><linearGradient id="__lottie_element_157" spreadMethod="pad" gradientUnits="userSpaceOnUse" x1="12" y1="0" x2="12" y2="24"><stop offset="0%" stop-color="rgb(19,19,19)" stop-opacity="1"></stop><stop offset="100%" stop-color="rgb(19,19,19)" stop-opacity="0"></stop></linearGradient><linearGradient id="__lottie_element_161" spreadMethod="pad" gradientUnits="userSpaceOnUse" x1="12" y1="0" x2="12" y2="24"><stop offset="0%" stop-color="rgb(19,19,19)" stop-opacity="1"></stop><stop offset="100%" stop-color="rgb(19,19,19)" stop-opacity="0"></stop></linearGradient></defs><g clip-path="url(#__lottie_element_147)"><g transform="matrix(1,0,0,1,0,33.415000915527344)" opacity="1" style="display: block;"><path fill="rgb(197,182,174)" fill-opacity="1" d=" M24,95.11000061035156 C24,95.11000061035156 24,90.81999969482422 24,90.81999969482422 C24,90.81999969482422 0,90.81999969482422 0,90.81999969482422 C0,90.81999969482422 0,95.11000061035156 0,95.11000061035156 C0,95.11000061035156 24,95.11000061035156 24,95.11000061035156 C24,95.11000061035156 24,95.11000061035156 24,95.11000061035156z M24,59.400001525878906 C24,59.400001525878906 24,58.2400016784668 24,58.2400016784668 C24,58.2400016784668 0,58.2400016784668 0,58.2400016784668 C0,58.2400016784668 0,59.400001525878906 0,59.400001525878906 C0,59.400001525878906 24,59.400001525878906 24,59.400001525878906 C24,59.400001525878906 24,59.400001525878906 24,59.400001525878906z M24,89.23999786376953 C24,89.23999786376953 24,88.08999633789062 24,88.08999633789062 C24,88.08999633789062 0,88.08999633789062 0,88.08999633789062 C0,88.08999633789062 0,89.23999786376953 0,89.23999786376953 C0,89.23999786376953 24,89.23999786376953 24,89.23999786376953 C24,89.23999786376953 24,89.23999786376953 24,89.23999786376953z M24,76.55999755859375 C24,76.55999755859375 24,75.4000015258789 24,75.4000015258789 C24,75.4000015258789 0,75.4000015258789 0,75.4000015258789 C0,75.4000015258789 0,76.55999755859375 0,76.55999755859375 C0,76.55999755859375 24,76.55999755859375 24,76.55999755859375 C24,76.55999755859375 24,76.55999755859375 24,76.55999755859375z M24,46.15999984741211 C24,46.15999984741211 24,45 24,45 C24,45 0,45 0,45 C0,45 0,46.15999984741211 0,46.15999984741211 C0,46.15999984741211 24,46.15999984741211 24,46.15999984741211 C24,46.15999984741211 24,46.15999984741211 24,46.15999984741211z M24,85.36000061035156 C24,85.36000061035156 24,84.19999694824219 24,84.19999694824219 C24,84.19999694824219 0,84.19999694824219 0,84.19999694824219 C0,84.19999694824219 0,85.36000061035156 0,85.36000061035156 C0,85.36000061035156 24,85.36000061035156 24,85.36000061035156 C24,85.36000061035156 24,85.36000061035156 24,85.36000061035156z M24,82.7699966430664 C24,82.7699966430664 24,81.62000274658203 24,81.62000274658203 C24,81.62000274658203 0,81.62000274658203 0,81.62000274658203 C0,81.62000274658203 0,82.7699966430664 0,82.7699966430664 C0,82.7699966430664 24,82.7699966430664 24,82.7699966430664 C24,82.7699966430664 24,82.7699966430664 24,82.7699966430664z M24,80.0999984741211 C24,80.0999984741211 24,78.94000244140625 24,78.94000244140625 C24,78.94000244140625 0,78.94000244140625 0,78.94000244140625 C0,78.94000244140625 0,80.0999984741211 0,80.0999984741211 C0,80.0999984741211 24,80.0999984741211 24,80.0999984741211 C24,80.0999984741211 24,80.0999984741211 24,80.0999984741211z M24,32.470001220703125 C24,32.470001220703125 24,31.309999465942383 24,31.309999465942383 C24,31.309999465942383 0,31.309999465942383 0,31.309999465942383 C0,31.309999465942383 0,32.470001220703125 0,32.470001220703125 C0,32.470001220703125 24,32.470001220703125 24,32.470001220703125 C24,32.470001220703125 24,32.470001220703125 24,32.470001220703125z M24,29.8799991607666 C24,29.8799991607666 24,28.729999542236328 24,28.729999542236328 C24,28.729999542236328 0,28.729999542236328 0,28.729999542236328 C0,28.729999542236328 0,29.8799991607666 0,29.8799991607666 C0,29.8799991607666 24,29.8799991607666 24,29.8799991607666 C24,29.8799991607666 24,29.8799991607666 24,29.8799991607666z M24,27.209999084472656 C24,27.209999084472656 24,26.049999237060547 24,26.049999237060547 C24,26.049999237060547 0,26.049999237060547 0,26.049999237060547 C0,26.049999237060547 0,27.209999084472656 0,27.209999084472656 C0,27.209999084472656 24,27.209999084472656 24,27.209999084472656 C24,27.209999084472656 24,27.209999084472656 24,27.209999084472656z M24,72.70999908447266 C24,72.70999908447266 24,71.55000305175781 24,71.55000305175781 C24,71.55000305175781 0,71.55000305175781 0,71.55000305175781 C0,71.55000305175781 0,72.70999908447266 0,72.70999908447266 C0,72.70999908447266 24,72.70999908447266 24,72.70999908447266 C24,72.70999908447266 24,72.70999908447266 24,72.70999908447266z M24,70.70999908447266 C24,70.70999908447266 24,69.55000305175781 24,69.55000305175781 C24,69.55000305175781 0,69.55000305175781 0,69.55000305175781 C0,69.55000305175781 0,70.70999908447266 0,70.70999908447266 C0,70.70999908447266 24,70.70999908447266 24,70.70999908447266 C24,70.70999908447266 24,70.70999908447266 24,70.70999908447266z M24,22.889999389648438 C24,22.889999389648438 24,21.729999542236328 24,21.729999542236328 C24,21.729999542236328 0,21.729999542236328 0,21.729999542236328 C0,21.729999542236328 0,22.889999389648438 0,22.889999389648438 C0,22.889999389648438 24,22.889999389648438 24,22.889999389648438 C24,22.889999389648438 24,22.889999389648438 24,22.889999389648438z M24,20.899999618530273 C24,20.899999618530273 24,19.739999771118164 24,19.739999771118164 C24,19.739999771118164 0,19.739999771118164 0,19.739999771118164 C0,19.739999771118164 0,20.899999618530273 0,20.899999618530273 C0,20.899999618530273 24,20.899999618530273 24,20.899999618530273 C24,20.899999618530273 24,20.899999618530273 24,20.899999618530273z M24,12.229999542236328 C24,12.229999542236328 24,11.069999694824219 24,11.069999694824219 C24,11.069999694824219 0,11.069999694824219 0,11.069999694824219 C0,11.069999694824219 0,12.229999542236328 0,12.229999542236328 C0,12.229999542236328 24,12.229999542236328 24,12.229999542236328 C24,12.229999542236328 24,12.229999542236328 24,12.229999542236328z M24,10.229999542236328 C24,10.229999542236328 24,9.069999694824219 24,9.069999694824219 C24,9.069999694824219 0,9.069999694824219 0,9.069999694824219 C0,9.069999694824219 0,10.229999542236328 0,10.229999542236328 C0,10.229999542236328 24,10.229999542236328 24,10.229999542236328 C24,10.229999542236328 24,10.229999542236328 24,10.229999542236328z M24,56.560001373291016 C24,56.560001373291016 24,52.27000045776367 24,52.27000045776367 C24,52.27000045776367 0,52.27000045776367 0,52.27000045776367 C0,52.27000045776367 0,56.560001373291016 0,56.560001373291016 C0,56.560001373291016 24,56.560001373291016 24,56.560001373291016 C24,56.560001373291016 24,56.560001373291016 24,56.560001373291016z M24,38.22999954223633 C24,38.22999954223633 24,33.939998626708984 24,33.939998626708984 C24,33.939998626708984 0,33.939998626708984 0,33.939998626708984 C0,33.939998626708984 0,38.22999954223633 0,38.22999954223633 C0,38.22999954223633 24,38.22999954223633 24,38.22999954223633 C24,38.22999954223633 24,38.22999954223633 24,38.22999954223633z M24,42.310001373291016 C24,42.310001373291016 24,39.86000061035156 24,39.86000061035156 C24,39.86000061035156 0,39.86000061035156 0,39.86000061035156 C0,39.86000061035156 0,42.310001373291016 0,42.310001373291016 C0,42.310001373291016 24,42.310001373291016 24,42.310001373291016 C24,42.310001373291016 24,42.310001373291016 24,42.310001373291016z M24,67.86000061035156 C24,67.86000061035156 24,65.4000015258789 24,65.4000015258789 C24,65.4000015258789 0,65.4000015258789 0,65.4000015258789 C0,65.4000015258789 0,67.86000061035156 0,67.86000061035156 C0,67.86000061035156 24,67.86000061035156 24,67.86000061035156 C24,67.86000061035156 24,67.86000061035156 24,67.86000061035156z M24,63.560001373291016 C24,63.560001373291016 24,61.11000061035156 24,61.11000061035156 C24,61.11000061035156 0,61.11000061035156 0,61.11000061035156 C0,61.11000061035156 0,63.560001373291016 0,63.560001373291016 C0,63.560001373291016 24,63.560001373291016 24,63.560001373291016 C24,63.560001373291016 24,63.560001373291016 24,63.560001373291016z M24,17.399999618530273 C24,17.399999618530273 24,14.949999809265137 24,14.949999809265137 C24,14.949999809265137 0,14.949999809265137 0,14.949999809265137 C0,14.949999809265137 0,17.399999618530273 0,17.399999618530273 C0,17.399999618530273 24,17.399999618530273 24,17.399999618530273 C24,17.399999618530273 24,17.399999618530273 24,17.399999618530273z M24,6.730000019073486 C24,6.730000019073486 24,4.28000020980835 24,4.28000020980835 C24,4.28000020980835 0,4.28000020980835 0,4.28000020980835 C0,4.28000020980835 0,6.730000019073486 0,6.730000019073486 C0,6.730000019073486 24,6.730000019073486 24,6.730000019073486 C24,6.730000019073486 24,6.730000019073486 24,6.730000019073486z M24,100 C24,100 24,98.8499984741211 24,98.8499984741211 C24,98.8499984741211 0,98.8499984741211 0,98.8499984741211 C0,98.8499984741211 0,100 0,100 C0,100 24,100 24,100 C24,100 24,100 24,100z M24,97.9000015258789 C24,97.9000015258789 24,96.75 24,96.75 C24,96.75 0,96.75 0,96.75 C0,96.75 0,97.9000015258789 0,97.9000015258789 C0,97.9000015258789 24,97.9000015258789 24,97.9000015258789 C24,97.9000015258789 24,97.9000015258789 24,97.9000015258789z M24,50.880001068115234 C24,50.880001068115234 24,49.72999954223633 24,49.72999954223633 C24,49.72999954223633 0,49.72999954223633 0,49.72999954223633 C0,49.72999954223633 0,50.880001068115234 0,50.880001068115234 C0,50.880001068115234 24,50.880001068115234 24,50.880001068115234 C24,50.880001068115234 24,50.880001068115234 24,50.880001068115234z M24,48.779998779296875 C24,48.779998779296875 24,47.630001068115234 24,47.630001068115234 C24,47.630001068115234 0,47.630001068115234 0,47.630001068115234 C0,47.630001068115234 0,48.779998779296875 0,48.779998779296875 C0,48.779998779296875 24,48.779998779296875 24,48.779998779296875 C24,48.779998779296875 24,48.779998779296875 24,48.779998779296875z M24,3.25 C24,3.25 24,2.0999999046325684 24,2.0999999046325684 C24,2.0999999046325684 0,2.0999999046325684 0,2.0999999046325684 C0,2.0999999046325684 0,3.25 0,3.25 C0,3.25 24,3.25 24,3.25 C24,3.25 24,3.25 24,3.25z M24,1.149999976158142 C24,1.149999976158142 24,0 24,0 C24,0 0,0 0,0 C0,0 0,1.149999976158142 0,1.149999976158142 C0,1.149999976158142 24,1.149999976158142 24,1.149999976158142 C24,1.149999976158142 24,1.149999976158142 24,1.149999976158142z"></path></g><g transform="matrix(1,0,0,1,0,-66.58499908447266)" opacity="1" style="display: block;"><path fill="rgb(197,182,174)" fill-opacity="1" d=" M24,95.11000061035156 C24,95.11000061035156 24,90.81999969482422 24,90.81999969482422 C24,90.81999969482422 0,90.81999969482422 0,90.81999969482422 C0,90.81999969482422 0,95.11000061035156 0,95.11000061035156 C0,95.11000061035156 24,95.11000061035156 24,95.11000061035156 C24,95.11000061035156 24,95.11000061035156 24,95.11000061035156z M24,59.400001525878906 C24,59.400001525878906 24,58.2400016784668 24,58.2400016784668 C24,58.2400016784668 0,58.2400016784668 0,58.2400016784668 C0,58.2400016784668 0,59.400001525878906 0,59.400001525878906 C0,59.400001525878906 24,59.400001525878906 24,59.400001525878906 C24,59.400001525878906 24,59.400001525878906 24,59.400001525878906z M24,89.23999786376953 C24,89.23999786376953 24,88.08999633789062 24,88.08999633789062 C24,88.08999633789062 0,88.08999633789062 0,88.08999633789062 C0,88.08999633789062 0,89.23999786376953 0,89.23999786376953 C0,89.23999786376953 24,89.23999786376953 24,89.23999786376953 C24,89.23999786376953 24,89.23999786376953 24,89.23999786376953z M24,76.55999755859375 C24,76.55999755859375 24,75.4000015258789 24,75.4000015258789 C24,75.4000015258789 0,75.4000015258789 0,75.4000015258789 C0,75.4000015258789 0,76.55999755859375 0,76.55999755859375 C0,76.55999755859375 24,76.55999755859375 24,76.55999755859375 C24,76.55999755859375 24,76.55999755859375 24,76.55999755859375z M24,46.15999984741211 C24,46.15999984741211 24,45 24,45 C24,45 0,45 0,45 C0,45 0,46.15999984741211 0,46.15999984741211 C0,46.15999984741211 24,46.15999984741211 24,46.15999984741211 C24,46.15999984741211 24,46.15999984741211 24,46.15999984741211z M24,85.36000061035156 C24,85.36000061035156 24,84.19999694824219 24,84.19999694824219 C24,84.19999694824219 0,84.19999694824219 0,84.19999694824219 C0,84.19999694824219 0,85.36000061035156 0,85.36000061035156 C0,85.36000061035156 24,85.36000061035156 24,85.36000061035156 C24,85.36000061035156 24,85.36000061035156 24,85.36000061035156z M24,82.7699966430664 C24,82.7699966430664 24,81.62000274658203 24,81.62000274658203 C24,81.62000274658203 0,81.62000274658203 0,81.62000274658203 C0,81.62000274658203 0,82.7699966430664 0,82.7699966430664 C0,82.7699966430664 24,82.7699966430664 24,82.7699966430664 C24,82.7699966430664 24,82.7699966430664 24,82.7699966430664z M24,80.0999984741211 C24,80.0999984741211 24,78.94000244140625 24,78.94000244140625 C24,78.94000244140625 0,78.94000244140625 0,78.94000244140625 C0,78.94000244140625 0,80.0999984741211 0,80.0999984741211 C0,80.0999984741211 24,80.0999984741211 24,80.0999984741211 C24,80.0999984741211 24,80.0999984741211 24,80.0999984741211z M24,32.470001220703125 C24,32.470001220703125 24,31.309999465942383 24,31.309999465942383 C24,31.309999465942383 0,31.309999465942383 0,31.309999465942383 C0,31.309999465942383 0,32.470001220703125 0,32.470001220703125 C0,32.470001220703125 24,32.470001220703125 24,32.470001220703125 C24,32.470001220703125 24,32.470001220703125 24,32.470001220703125z M24,29.8799991607666 C24,29.8799991607666 24,28.729999542236328 24,28.729999542236328 C24,28.729999542236328 0,28.729999542236328 0,28.729999542236328 C0,28.729999542236328 0,29.8799991607666 0,29.8799991607666 C0,29.8799991607666 24,29.8799991607666 24,29.8799991607666 C24,29.8799991607666 24,29.8799991607666 24,29.8799991607666z M24,27.209999084472656 C24,27.209999084472656 24,26.049999237060547 24,26.049999237060547 C24,26.049999237060547 0,26.049999237060547 0,26.049999237060547 C0,26.049999237060547 0,27.209999084472656 0,27.209999084472656 C0,27.209999084472656 24,27.209999084472656 24,27.209999084472656 C24,27.209999084472656 24,27.209999084472656 24,27.209999084472656z M24,72.70999908447266 C24,72.70999908447266 24,71.55000305175781 24,71.55000305175781 C24,71.55000305175781 0,71.55000305175781 0,71.55000305175781 C0,71.55000305175781 0,72.70999908447266 0,72.70999908447266 C0,72.70999908447266 24,72.70999908447266 24,72.70999908447266 C24,72.70999908447266 24,72.70999908447266 24,72.70999908447266z M24,70.70999908447266 C24,70.70999908447266 24,69.55000305175781 24,69.55000305175781 C24,69.55000305175781 0,69.55000305175781 0,69.55000305175781 C0,69.55000305175781 0,70.70999908447266 0,70.70999908447266 C0,70.70999908447266 24,70.70999908447266 24,70.70999908447266 C24,70.70999908447266 24,70.70999908447266 24,70.70999908447266z M24,22.889999389648438 C24,22.889999389648438 24,21.729999542236328 24,21.729999542236328 C24,21.729999542236328 0,21.729999542236328 0,21.729999542236328 C0,21.729999542236328 0,22.889999389648438 0,22.889999389648438 C0,22.889999389648438 24,22.889999389648438 24,22.889999389648438 C24,22.889999389648438 24,22.889999389648438 24,22.889999389648438z M24,20.899999618530273 C24,20.899999618530273 24,19.739999771118164 24,19.739999771118164 C24,19.739999771118164 0,19.739999771118164 0,19.739999771118164 C0,19.739999771118164 0,20.899999618530273 0,20.899999618530273 C0,20.899999618530273 24,20.899999618530273 24,20.899999618530273 C24,20.899999618530273 24,20.899999618530273 24,20.899999618530273z M24,12.229999542236328 C24,12.229999542236328 24,11.069999694824219 24,11.069999694824219 C24,11.069999694824219 0,11.069999694824219 0,11.069999694824219 C0,11.069999694824219 0,12.229999542236328 0,12.229999542236328 C0,12.229999542236328 24,12.229999542236328 24,12.229999542236328 C24,12.229999542236328 24,12.229999542236328 24,12.229999542236328z M24,10.229999542236328 C24,10.229999542236328 24,9.069999694824219 24,9.069999694824219 C24,9.069999694824219 0,9.069999694824219 0,9.069999694824219 C0,9.069999694824219 0,10.229999542236328 0,10.229999542236328 C0,10.229999542236328 24,10.229999542236328 24,10.229999542236328 C24,10.229999542236328 24,10.229999542236328 24,10.229999542236328z M24,56.560001373291016 C24,56.560001373291016 24,52.27000045776367 24,52.27000045776367 C24,52.27000045776367 0,52.27000045776367 0,52.27000045776367 C0,52.27000045776367 0,56.560001373291016 0,56.560001373291016 C0,56.560001373291016 24,56.560001373291016 24,56.560001373291016 C24,56.560001373291016 24,56.560001373291016 24,56.560001373291016z M24,38.22999954223633 C24,38.22999954223633 24,33.939998626708984 24,33.939998626708984 C24,33.939998626708984 0,33.939998626708984 0,33.939998626708984 C0,33.939998626708984 0,38.22999954223633 0,38.22999954223633 C0,38.22999954223633 24,38.22999954223633 24,38.22999954223633 C24,38.22999954223633 24,38.22999954223633 24,38.22999954223633z M24,42.310001373291016 C24,42.310001373291016 24,39.86000061035156 24,39.86000061035156 C24,39.86000061035156 0,39.86000061035156 0,39.86000061035156 C0,39.86000061035156 0,42.310001373291016 0,42.310001373291016 C0,42.310001373291016 24,42.310001373291016 24,42.310001373291016 C24,42.310001373291016 24,42.310001373291016 24,42.310001373291016z M24,67.86000061035156 C24,67.86000061035156 24,65.4000015258789 24,65.4000015258789 C24,65.4000015258789 0,65.4000015258789 0,65.4000015258789 C0,65.4000015258789 0,67.86000061035156 0,67.86000061035156 C0,67.86000061035156 24,67.86000061035156 24,67.86000061035156 C24,67.86000061035156 24,67.86000061035156 24,67.86000061035156z M24,63.560001373291016 C24,63.560001373291016 24,61.11000061035156 24,61.11000061035156 C24,61.11000061035156 0,61.11000061035156 0,61.11000061035156 C0,61.11000061035156 0,63.560001373291016 0,63.560001373291016 C0,63.560001373291016 24,63.560001373291016 24,63.560001373291016 C24,63.560001373291016 24,63.560001373291016 24,63.560001373291016z M24,17.399999618530273 C24,17.399999618530273 24,14.949999809265137 24,14.949999809265137 C24,14.949999809265137 0,14.949999809265137 0,14.949999809265137 C0,14.949999809265137 0,17.399999618530273 0,17.399999618530273 C0,17.399999618530273 24,17.399999618530273 24,17.399999618530273 C24,17.399999618530273 24,17.399999618530273 24,17.399999618530273z M24,6.730000019073486 C24,6.730000019073486 24,4.28000020980835 24,4.28000020980835 C24,4.28000020980835 0,4.28000020980835 0,4.28000020980835 C0,4.28000020980835 0,6.730000019073486 0,6.730000019073486 C0,6.730000019073486 24,6.730000019073486 24,6.730000019073486 C24,6.730000019073486 24,6.730000019073486 24,6.730000019073486z M24,100 C24,100 24,98.8499984741211 24,98.8499984741211 C24,98.8499984741211 0,98.8499984741211 0,98.8499984741211 C0,98.8499984741211 0,100 0,100 C0,100 24,100 24,100 C24,100 24,100 24,100z M24,97.9000015258789 C24,97.9000015258789 24,96.75 24,96.75 C24,96.75 0,96.75 0,96.75 C0,96.75 0,97.9000015258789 0,97.9000015258789 C0,97.9000015258789 24,97.9000015258789 24,97.9000015258789 C24,97.9000015258789 24,97.9000015258789 24,97.9000015258789z M24,50.880001068115234 C24,50.880001068115234 24,49.72999954223633 24,49.72999954223633 C24,49.72999954223633 0,49.72999954223633 0,49.72999954223633 C0,49.72999954223633 0,50.880001068115234 0,50.880001068115234 C0,50.880001068115234 24,50.880001068115234 24,50.880001068115234 C24,50.880001068115234 24,50.880001068115234 24,50.880001068115234z M24,48.779998779296875 C24,48.779998779296875 24,47.630001068115234 24,47.630001068115234 C24,47.630001068115234 0,47.630001068115234 0,47.630001068115234 C0,47.630001068115234 0,48.779998779296875 0,48.779998779296875 C0,48.779998779296875 24,48.779998779296875 24,48.779998779296875 C24,48.779998779296875 24,48.779998779296875 24,48.779998779296875z M24,3.25 C24,3.25 24,2.0999999046325684 24,2.0999999046325684 C24,2.0999999046325684 0,2.0999999046325684 0,2.0999999046325684 C0,2.0999999046325684 0,3.25 0,3.25 C0,3.25 24,3.25 24,3.25 C24,3.25 24,3.25 24,3.25z M24,1.149999976158142 C24,1.149999976158142 24,0 24,0 C24,0 0,0 0,0 C0,0 0,1.149999976158142 0,1.149999976158142 C0,1.149999976158142 24,1.149999976158142 24,1.149999976158142 C24,1.149999976158142 24,1.149999976158142 24,1.149999976158142z"></path></g><g transform="matrix(1,0,0,1,0,0)" opacity="1" style="display: block;"><path fill="url(#__lottie_element_157)" fill-opacity="1" d=" M24,0 C24,0 24,24 24,24 C24,24 0,24 0,24 C0,24 0,0 0,0 C0,0 24,0 24,0z"></path></g><g transform="matrix(-1,0,0,-1,24,100)" opacity="1" style="display: block;"><path fill="url(#__lottie_element_161)" fill-opacity="1" d=" M24,0 C24,0 24,24 24,24 C24,24 0,24 0,24 C0,24 0,0 0,0 C0,0 24,0 24,0z"></path></g></g></svg>
