<svg data-w-id="ffd61f1f-6357-3fbf-d3ba-81a47c2b596b" xmlns="http://www.w3.org/2000/svg" width="100%" viewBox="0 0 34 34" fill="none" class="svg--cf1" style="transform: translate3d(0px, 0px, 0px) scale3d(1, 1, 1) rotateX(0deg) rotateY(0deg) rotateZ(180deg) skew(0deg, 0deg); transform-style: preserve-3d;"><path d="M5.57153 17C11.8834 17 17.0001 11.8833 17.0001 5.57141C17.0001 11.8833 22.1168 17 28.4287 17C22.1168 17 17.0001 22.1167 17.0001 28.4286C17.0001 22.1167 11.8834 17 5.57153 17Z" fill="#C5B6AF"></path><path opacity="0.3" d="M33 17C33 25.8366 25.8366 33 17 33M33 17C33 8.16344 25.8366 1 17 1M33 17C33 12.5817 25.8366 9 17 9C8.16344 9 1 12.5817 1 17M33 17C33 21.4183 25.8366 25 17 25C8.16344 25 1 21.4183 1 17M17 33C8.16344 33 1 25.8366 1 17M17 33C21.4183 33 25 25.8366 25 17C25 8.16344 21.4183 1 17 1M17 33C12.5817 33 9 25.8366 9 17C9 8.16344 12.5817 1 17 1M1 17C1 8.16344 8.16344 1 17 1" stroke="#C5B6AF"></path></svg>